G75*
%MOIN*%
%OFA0B0*%
%FSLAX24Y24*%
%IPPOS*%
%LPD*%
%AMOC8*
5,1,8,0,0,1.08239X$1,22.5*
%
%ADD10C,0.0010*%
%ADD11C,0.0000*%
%ADD12R,0.0138X0.0591*%
%ADD13R,0.0433X0.0394*%
%ADD14R,0.0394X0.0433*%
%ADD15R,0.2100X0.0760*%
%ADD16C,0.0634*%
%ADD17C,0.1300*%
%ADD18R,0.0157X0.0551*%
%ADD19R,0.0709X0.0709*%
%ADD20C,0.0476*%
%ADD21C,0.0787*%
%ADD22R,0.0315X0.0315*%
%ADD23C,0.0100*%
%ADD24C,0.0120*%
%ADD25C,0.0160*%
%ADD26C,0.0350*%
D10*
X001225Y006100D02*
X031664Y006100D01*
X032725Y007100D02*
X032725Y020100D01*
X031725Y021100D02*
X001225Y021100D01*
X000225Y020100D02*
X000225Y007100D01*
D11*
X000575Y007100D02*
X000577Y007150D01*
X000583Y007200D01*
X000593Y007250D01*
X000606Y007298D01*
X000623Y007346D01*
X000644Y007392D01*
X000668Y007436D01*
X000696Y007478D01*
X000727Y007518D01*
X000761Y007555D01*
X000798Y007590D01*
X000837Y007621D01*
X000878Y007650D01*
X000922Y007675D01*
X000968Y007697D01*
X001015Y007715D01*
X001063Y007729D01*
X001112Y007740D01*
X001162Y007747D01*
X001212Y007750D01*
X001263Y007749D01*
X001313Y007744D01*
X001363Y007735D01*
X001411Y007723D01*
X001459Y007706D01*
X001505Y007686D01*
X001550Y007663D01*
X001593Y007636D01*
X001633Y007606D01*
X001671Y007573D01*
X001706Y007537D01*
X001739Y007498D01*
X001768Y007457D01*
X001794Y007414D01*
X001817Y007369D01*
X001836Y007322D01*
X001851Y007274D01*
X001863Y007225D01*
X001871Y007175D01*
X001875Y007125D01*
X001875Y007075D01*
X001871Y007025D01*
X001863Y006975D01*
X001851Y006926D01*
X001836Y006878D01*
X001817Y006831D01*
X001794Y006786D01*
X001768Y006743D01*
X001739Y006702D01*
X001706Y006663D01*
X001671Y006627D01*
X001633Y006594D01*
X001593Y006564D01*
X001550Y006537D01*
X001505Y006514D01*
X001459Y006494D01*
X001411Y006477D01*
X001363Y006465D01*
X001313Y006456D01*
X001263Y006451D01*
X001212Y006450D01*
X001162Y006453D01*
X001112Y006460D01*
X001063Y006471D01*
X001015Y006485D01*
X000968Y006503D01*
X000922Y006525D01*
X000878Y006550D01*
X000837Y006579D01*
X000798Y006610D01*
X000761Y006645D01*
X000727Y006682D01*
X000696Y006722D01*
X000668Y006764D01*
X000644Y006808D01*
X000623Y006854D01*
X000606Y006902D01*
X000593Y006950D01*
X000583Y007000D01*
X000577Y007050D01*
X000575Y007100D01*
X000225Y007100D02*
X000227Y007040D01*
X000232Y006979D01*
X000241Y006920D01*
X000254Y006861D01*
X000270Y006802D01*
X000290Y006745D01*
X000313Y006690D01*
X000340Y006635D01*
X000369Y006583D01*
X000402Y006532D01*
X000438Y006483D01*
X000476Y006437D01*
X000518Y006393D01*
X000562Y006351D01*
X000608Y006313D01*
X000657Y006277D01*
X000708Y006244D01*
X000760Y006215D01*
X000815Y006188D01*
X000870Y006165D01*
X000927Y006145D01*
X000986Y006129D01*
X001045Y006116D01*
X001104Y006107D01*
X001165Y006102D01*
X001225Y006100D01*
X000575Y020100D02*
X000577Y020150D01*
X000583Y020200D01*
X000593Y020250D01*
X000606Y020298D01*
X000623Y020346D01*
X000644Y020392D01*
X000668Y020436D01*
X000696Y020478D01*
X000727Y020518D01*
X000761Y020555D01*
X000798Y020590D01*
X000837Y020621D01*
X000878Y020650D01*
X000922Y020675D01*
X000968Y020697D01*
X001015Y020715D01*
X001063Y020729D01*
X001112Y020740D01*
X001162Y020747D01*
X001212Y020750D01*
X001263Y020749D01*
X001313Y020744D01*
X001363Y020735D01*
X001411Y020723D01*
X001459Y020706D01*
X001505Y020686D01*
X001550Y020663D01*
X001593Y020636D01*
X001633Y020606D01*
X001671Y020573D01*
X001706Y020537D01*
X001739Y020498D01*
X001768Y020457D01*
X001794Y020414D01*
X001817Y020369D01*
X001836Y020322D01*
X001851Y020274D01*
X001863Y020225D01*
X001871Y020175D01*
X001875Y020125D01*
X001875Y020075D01*
X001871Y020025D01*
X001863Y019975D01*
X001851Y019926D01*
X001836Y019878D01*
X001817Y019831D01*
X001794Y019786D01*
X001768Y019743D01*
X001739Y019702D01*
X001706Y019663D01*
X001671Y019627D01*
X001633Y019594D01*
X001593Y019564D01*
X001550Y019537D01*
X001505Y019514D01*
X001459Y019494D01*
X001411Y019477D01*
X001363Y019465D01*
X001313Y019456D01*
X001263Y019451D01*
X001212Y019450D01*
X001162Y019453D01*
X001112Y019460D01*
X001063Y019471D01*
X001015Y019485D01*
X000968Y019503D01*
X000922Y019525D01*
X000878Y019550D01*
X000837Y019579D01*
X000798Y019610D01*
X000761Y019645D01*
X000727Y019682D01*
X000696Y019722D01*
X000668Y019764D01*
X000644Y019808D01*
X000623Y019854D01*
X000606Y019902D01*
X000593Y019950D01*
X000583Y020000D01*
X000577Y020050D01*
X000575Y020100D01*
X000225Y020100D02*
X000227Y020160D01*
X000232Y020221D01*
X000241Y020280D01*
X000254Y020339D01*
X000270Y020398D01*
X000290Y020455D01*
X000313Y020510D01*
X000340Y020565D01*
X000369Y020617D01*
X000402Y020668D01*
X000438Y020717D01*
X000476Y020763D01*
X000518Y020807D01*
X000562Y020849D01*
X000608Y020887D01*
X000657Y020923D01*
X000708Y020956D01*
X000760Y020985D01*
X000815Y021012D01*
X000870Y021035D01*
X000927Y021055D01*
X000986Y021071D01*
X001045Y021084D01*
X001104Y021093D01*
X001165Y021098D01*
X001225Y021100D01*
X031075Y020100D02*
X031077Y020150D01*
X031083Y020200D01*
X031093Y020250D01*
X031106Y020298D01*
X031123Y020346D01*
X031144Y020392D01*
X031168Y020436D01*
X031196Y020478D01*
X031227Y020518D01*
X031261Y020555D01*
X031298Y020590D01*
X031337Y020621D01*
X031378Y020650D01*
X031422Y020675D01*
X031468Y020697D01*
X031515Y020715D01*
X031563Y020729D01*
X031612Y020740D01*
X031662Y020747D01*
X031712Y020750D01*
X031763Y020749D01*
X031813Y020744D01*
X031863Y020735D01*
X031911Y020723D01*
X031959Y020706D01*
X032005Y020686D01*
X032050Y020663D01*
X032093Y020636D01*
X032133Y020606D01*
X032171Y020573D01*
X032206Y020537D01*
X032239Y020498D01*
X032268Y020457D01*
X032294Y020414D01*
X032317Y020369D01*
X032336Y020322D01*
X032351Y020274D01*
X032363Y020225D01*
X032371Y020175D01*
X032375Y020125D01*
X032375Y020075D01*
X032371Y020025D01*
X032363Y019975D01*
X032351Y019926D01*
X032336Y019878D01*
X032317Y019831D01*
X032294Y019786D01*
X032268Y019743D01*
X032239Y019702D01*
X032206Y019663D01*
X032171Y019627D01*
X032133Y019594D01*
X032093Y019564D01*
X032050Y019537D01*
X032005Y019514D01*
X031959Y019494D01*
X031911Y019477D01*
X031863Y019465D01*
X031813Y019456D01*
X031763Y019451D01*
X031712Y019450D01*
X031662Y019453D01*
X031612Y019460D01*
X031563Y019471D01*
X031515Y019485D01*
X031468Y019503D01*
X031422Y019525D01*
X031378Y019550D01*
X031337Y019579D01*
X031298Y019610D01*
X031261Y019645D01*
X031227Y019682D01*
X031196Y019722D01*
X031168Y019764D01*
X031144Y019808D01*
X031123Y019854D01*
X031106Y019902D01*
X031093Y019950D01*
X031083Y020000D01*
X031077Y020050D01*
X031075Y020100D01*
X031725Y021100D02*
X031785Y021098D01*
X031846Y021093D01*
X031905Y021084D01*
X031964Y021071D01*
X032023Y021055D01*
X032080Y021035D01*
X032135Y021012D01*
X032190Y020985D01*
X032242Y020956D01*
X032293Y020923D01*
X032342Y020887D01*
X032388Y020849D01*
X032432Y020807D01*
X032474Y020763D01*
X032512Y020717D01*
X032548Y020668D01*
X032581Y020617D01*
X032610Y020565D01*
X032637Y020510D01*
X032660Y020455D01*
X032680Y020398D01*
X032696Y020339D01*
X032709Y020280D01*
X032718Y020221D01*
X032723Y020160D01*
X032725Y020100D01*
X032726Y007100D02*
X032722Y007037D01*
X032714Y006976D01*
X032703Y006914D01*
X032688Y006854D01*
X032670Y006794D01*
X032648Y006736D01*
X032622Y006679D01*
X032593Y006624D01*
X032561Y006571D01*
X032526Y006520D01*
X032488Y006471D01*
X032446Y006424D01*
X032402Y006380D01*
X032356Y006339D01*
X032307Y006300D01*
X032255Y006265D01*
X032202Y006232D01*
X032147Y006203D01*
X032090Y006178D01*
X032032Y006156D01*
X031973Y006137D01*
X031912Y006122D01*
X031851Y006111D01*
X031789Y006103D01*
X031727Y006099D01*
X031665Y006099D01*
X031075Y007100D02*
X031077Y007150D01*
X031083Y007200D01*
X031093Y007250D01*
X031106Y007298D01*
X031123Y007346D01*
X031144Y007392D01*
X031168Y007436D01*
X031196Y007478D01*
X031227Y007518D01*
X031261Y007555D01*
X031298Y007590D01*
X031337Y007621D01*
X031378Y007650D01*
X031422Y007675D01*
X031468Y007697D01*
X031515Y007715D01*
X031563Y007729D01*
X031612Y007740D01*
X031662Y007747D01*
X031712Y007750D01*
X031763Y007749D01*
X031813Y007744D01*
X031863Y007735D01*
X031911Y007723D01*
X031959Y007706D01*
X032005Y007686D01*
X032050Y007663D01*
X032093Y007636D01*
X032133Y007606D01*
X032171Y007573D01*
X032206Y007537D01*
X032239Y007498D01*
X032268Y007457D01*
X032294Y007414D01*
X032317Y007369D01*
X032336Y007322D01*
X032351Y007274D01*
X032363Y007225D01*
X032371Y007175D01*
X032375Y007125D01*
X032375Y007075D01*
X032371Y007025D01*
X032363Y006975D01*
X032351Y006926D01*
X032336Y006878D01*
X032317Y006831D01*
X032294Y006786D01*
X032268Y006743D01*
X032239Y006702D01*
X032206Y006663D01*
X032171Y006627D01*
X032133Y006594D01*
X032093Y006564D01*
X032050Y006537D01*
X032005Y006514D01*
X031959Y006494D01*
X031911Y006477D01*
X031863Y006465D01*
X031813Y006456D01*
X031763Y006451D01*
X031712Y006450D01*
X031662Y006453D01*
X031612Y006460D01*
X031563Y006471D01*
X031515Y006485D01*
X031468Y006503D01*
X031422Y006525D01*
X031378Y006550D01*
X031337Y006579D01*
X031298Y006610D01*
X031261Y006645D01*
X031227Y006682D01*
X031196Y006722D01*
X031168Y006764D01*
X031144Y006808D01*
X031123Y006854D01*
X031106Y006902D01*
X031093Y006950D01*
X031083Y007000D01*
X031077Y007050D01*
X031075Y007100D01*
D12*
X018113Y014037D03*
X017861Y014037D03*
X017609Y014037D03*
X017357Y014037D03*
X017105Y014037D03*
X016853Y014037D03*
X016601Y014037D03*
X016349Y014037D03*
X016097Y014037D03*
X015845Y014037D03*
X015593Y014037D03*
X015341Y014037D03*
X015089Y014037D03*
X014837Y014037D03*
X014837Y016163D03*
X015089Y016163D03*
X015341Y016163D03*
X015593Y016163D03*
X015845Y016163D03*
X016097Y016163D03*
X016357Y016163D03*
X016601Y016163D03*
X016853Y016163D03*
X017105Y016163D03*
X017357Y016163D03*
X017609Y016163D03*
X017861Y016163D03*
X018113Y016163D03*
D13*
X018121Y017300D03*
X018829Y017300D03*
X018829Y018100D03*
X018121Y018100D03*
X016529Y017900D03*
X015821Y017900D03*
X013829Y017100D03*
X013121Y017100D03*
X013121Y015100D03*
X013829Y015100D03*
X017721Y012800D03*
X018429Y012800D03*
X018429Y012100D03*
X017721Y012100D03*
X016829Y010600D03*
X016121Y010600D03*
X019871Y012750D03*
X020579Y012750D03*
D14*
X020225Y014746D03*
X020225Y015454D03*
X019225Y015454D03*
X019225Y014746D03*
X021225Y014746D03*
X021225Y015454D03*
D15*
X007125Y015100D03*
X003325Y015100D03*
D16*
X003847Y010714D03*
X004831Y010714D03*
X005619Y010714D03*
X006603Y010714D03*
X011347Y010714D03*
X012331Y010714D03*
X013119Y010714D03*
X014103Y010714D03*
X018847Y010714D03*
X019831Y010714D03*
X020619Y010714D03*
X021603Y010714D03*
X026347Y010714D03*
X027331Y010714D03*
X028119Y010714D03*
X029103Y010714D03*
D17*
X030312Y009647D03*
X025138Y009647D03*
X022812Y009647D03*
X017638Y009647D03*
X015312Y009647D03*
X010138Y009647D03*
X007812Y009647D03*
X002638Y009647D03*
D18*
X015963Y019307D03*
X016219Y019307D03*
X016475Y019307D03*
X016731Y019307D03*
X016987Y019307D03*
D19*
X016928Y020350D03*
X016022Y020350D03*
D20*
X015520Y019248D03*
X017430Y019248D03*
D21*
X017896Y020350D03*
X015054Y020350D03*
D22*
X016180Y017350D03*
X016770Y017350D03*
X019930Y012100D03*
X020520Y012100D03*
X027430Y012100D03*
X028020Y012100D03*
X013020Y012100D03*
X012430Y012100D03*
X005520Y012100D03*
X004930Y012100D03*
D23*
X005217Y012109D02*
X005233Y012109D01*
X005233Y012207D02*
X005217Y012207D01*
X005217Y012306D02*
X005233Y012306D01*
X005233Y012311D02*
X005233Y011910D01*
X005217Y011910D01*
X005217Y012311D01*
X005141Y012387D01*
X004718Y012387D01*
X004669Y012338D01*
X004648Y012359D01*
X004536Y012405D01*
X004414Y012405D01*
X004302Y012359D01*
X004216Y012273D01*
X004170Y012161D01*
X004170Y012039D01*
X004216Y011927D01*
X004234Y011910D01*
X003288Y011910D01*
X003165Y011787D01*
X003165Y011787D01*
X002965Y011587D01*
X002965Y010413D01*
X003062Y010316D01*
X002793Y010427D01*
X002483Y010427D01*
X002197Y010309D01*
X001977Y010089D01*
X001858Y009802D01*
X001858Y009492D01*
X001977Y009205D01*
X002197Y008986D01*
X002483Y008867D01*
X002793Y008867D01*
X003080Y008986D01*
X003300Y009205D01*
X003418Y009492D01*
X003418Y009802D01*
X003307Y010071D01*
X003388Y009990D01*
X007012Y009990D01*
X007135Y010113D01*
X007412Y010390D01*
X007566Y010390D01*
X007370Y010309D01*
X007150Y010089D01*
X007032Y009802D01*
X007032Y009492D01*
X007150Y009205D01*
X007370Y008986D01*
X007657Y008867D01*
X007967Y008867D01*
X008253Y008986D01*
X008473Y009205D01*
X008592Y009492D01*
X008592Y009802D01*
X008473Y010089D01*
X008253Y010309D01*
X008057Y010390D01*
X009893Y010390D01*
X009697Y010309D01*
X009477Y010089D01*
X009358Y009802D01*
X009358Y009492D01*
X009477Y009205D01*
X009697Y008986D01*
X009983Y008867D01*
X010293Y008867D01*
X010580Y008986D01*
X010800Y009205D01*
X010918Y009492D01*
X010918Y009802D01*
X010807Y010071D01*
X010888Y009990D01*
X012388Y009990D01*
X012465Y009913D01*
X012465Y008563D01*
X012615Y008413D01*
X012738Y008290D01*
X016662Y008290D01*
X016912Y008540D01*
X017035Y008663D01*
X017035Y009148D01*
X017197Y008986D01*
X017483Y008867D01*
X017793Y008867D01*
X018080Y008986D01*
X018300Y009205D01*
X018418Y009492D01*
X018418Y009802D01*
X018300Y010089D01*
X018080Y010309D01*
X017884Y010390D01*
X018088Y010390D01*
X018538Y009940D01*
X021012Y009940D01*
X021135Y010063D01*
X021335Y010263D01*
X021335Y010332D01*
X021358Y010315D01*
X021424Y010282D01*
X021494Y010259D01*
X021555Y010249D01*
X021555Y010666D01*
X021651Y010666D01*
X021651Y010249D01*
X021712Y010259D01*
X021782Y010282D01*
X021848Y010315D01*
X021907Y010358D01*
X021959Y010410D01*
X022002Y010470D01*
X022036Y010535D01*
X022058Y010605D01*
X022068Y010666D01*
X021651Y010666D01*
X021651Y010763D01*
X021555Y010763D01*
X021555Y011179D01*
X021494Y011170D01*
X021424Y011147D01*
X021358Y011113D01*
X021300Y011071D01*
X021212Y011160D01*
X021135Y011237D01*
X021135Y011687D01*
X021021Y011801D01*
X021118Y011841D01*
X021204Y011927D01*
X021250Y012039D01*
X021250Y012161D01*
X021204Y012273D01*
X021118Y012359D01*
X021006Y012405D01*
X020884Y012405D01*
X020772Y012359D01*
X020766Y012353D01*
X020732Y012387D01*
X020309Y012387D01*
X020233Y012311D01*
X020233Y011960D01*
X020217Y011960D01*
X020217Y012311D01*
X020141Y012387D01*
X019718Y012387D01*
X019642Y012311D01*
X019642Y011889D01*
X019671Y011860D01*
X018790Y011860D01*
X018796Y011883D01*
X018796Y012052D01*
X018478Y012052D01*
X018478Y012148D01*
X018796Y012148D01*
X018796Y012317D01*
X018786Y012355D01*
X018766Y012389D01*
X018738Y012417D01*
X018704Y012437D01*
X018666Y012447D01*
X018478Y012447D01*
X018478Y012148D01*
X018381Y012148D01*
X018381Y012447D01*
X018193Y012447D01*
X018155Y012437D01*
X018121Y012417D01*
X018093Y012389D01*
X018073Y012355D01*
X018067Y012333D01*
X018067Y012351D01*
X017991Y012427D01*
X017931Y012427D01*
X017931Y012473D01*
X017991Y012473D01*
X018067Y012549D01*
X018067Y012567D01*
X018073Y012545D01*
X018093Y012511D01*
X018121Y012483D01*
X018155Y012463D01*
X018193Y012453D01*
X018381Y012453D01*
X018381Y012752D01*
X018478Y012752D01*
X018478Y012848D01*
X018796Y012848D01*
X018796Y013017D01*
X018790Y013040D01*
X019228Y013040D01*
X019152Y013009D01*
X019066Y012923D01*
X019020Y012811D01*
X019020Y012689D01*
X019066Y012577D01*
X019152Y012491D01*
X019264Y012445D01*
X019386Y012445D01*
X019498Y012491D01*
X019524Y012518D01*
X019524Y012499D01*
X019600Y012423D01*
X020141Y012423D01*
X020217Y012499D01*
X020217Y012517D01*
X020223Y012495D01*
X020243Y012461D01*
X020271Y012433D01*
X020305Y012413D01*
X020343Y012403D01*
X020531Y012403D01*
X020531Y012702D01*
X020628Y012702D01*
X020628Y012798D01*
X021915Y012798D01*
X021915Y012700D02*
X020946Y012700D01*
X020946Y012702D02*
X020628Y012702D01*
X020628Y012403D01*
X020816Y012403D01*
X020854Y012413D01*
X020888Y012433D01*
X020916Y012461D01*
X020936Y012495D01*
X020946Y012533D01*
X020946Y012702D01*
X020946Y012798D02*
X020628Y012798D01*
X020628Y012700D02*
X020531Y012700D01*
X020531Y012601D02*
X020628Y012601D01*
X020628Y012503D02*
X020531Y012503D01*
X020531Y012404D02*
X020628Y012404D01*
X020819Y012404D02*
X020882Y012404D01*
X020938Y012503D02*
X021915Y012503D01*
X021915Y012601D02*
X020946Y012601D01*
X020946Y012798D02*
X020946Y012967D01*
X020936Y013005D01*
X020916Y013039D01*
X020915Y013040D01*
X021888Y013040D01*
X021915Y013013D01*
X021915Y011343D01*
X022038Y011220D01*
X022238Y011020D01*
X026021Y011020D01*
X025968Y010967D01*
X025900Y010803D01*
X025900Y010625D01*
X025968Y010461D01*
X026094Y010335D01*
X026258Y010267D01*
X026436Y010267D01*
X026479Y010285D01*
X026701Y010063D01*
X026824Y009940D01*
X029562Y009940D01*
X029607Y009985D01*
X029532Y009802D01*
X029532Y009492D01*
X029650Y009205D01*
X029870Y008986D01*
X030157Y008867D01*
X030467Y008867D01*
X030753Y008986D01*
X030973Y009205D01*
X031092Y009492D01*
X031092Y009802D01*
X030973Y010089D01*
X030753Y010309D01*
X030467Y010427D01*
X030157Y010427D01*
X029885Y010315D01*
X029885Y016687D01*
X029685Y016887D01*
X029562Y017010D01*
X019165Y017010D01*
X019166Y017011D01*
X019186Y017045D01*
X019196Y017083D01*
X019196Y017252D01*
X018878Y017252D01*
X018878Y017348D01*
X019196Y017348D01*
X019196Y017517D01*
X019186Y017555D01*
X019166Y017589D01*
X019138Y017617D01*
X019104Y017637D01*
X019066Y017647D01*
X018878Y017647D01*
X018878Y017348D01*
X018781Y017348D01*
X018781Y017647D01*
X018593Y017647D01*
X018555Y017637D01*
X018521Y017617D01*
X018493Y017589D01*
X018473Y017555D01*
X018467Y017533D01*
X018467Y017551D01*
X018391Y017627D01*
X018331Y017627D01*
X018331Y017773D01*
X018391Y017773D01*
X018467Y017849D01*
X018467Y017867D01*
X018473Y017845D01*
X018493Y017811D01*
X018521Y017783D01*
X018555Y017763D01*
X018593Y017753D01*
X018781Y017753D01*
X018781Y018052D01*
X018878Y018052D01*
X018878Y018148D01*
X019196Y018148D01*
X019196Y018317D01*
X019186Y018355D01*
X019166Y018389D01*
X019138Y018417D01*
X019104Y018437D01*
X019066Y018447D01*
X018878Y018447D01*
X018878Y018148D01*
X018781Y018148D01*
X018781Y018447D01*
X018593Y018447D01*
X018555Y018437D01*
X018521Y018417D01*
X018493Y018389D01*
X018473Y018355D01*
X018467Y018333D01*
X018467Y018351D01*
X018391Y018427D01*
X018331Y018427D01*
X018331Y018741D01*
X018185Y018887D01*
X018062Y019010D01*
X017713Y019010D01*
X017742Y019039D01*
X017798Y019174D01*
X017798Y019321D01*
X017742Y019456D01*
X017638Y019560D01*
X017503Y019616D01*
X017357Y019616D01*
X017221Y019560D01*
X017196Y019534D01*
X017196Y019636D01*
X017119Y019712D01*
X016117Y019712D01*
X016100Y019722D01*
X016062Y019732D01*
X015963Y019732D01*
X015865Y019732D01*
X015827Y019722D01*
X015792Y019702D01*
X015764Y019674D01*
X015745Y019640D01*
X015734Y019602D01*
X015734Y019554D01*
X015729Y019560D01*
X015593Y019616D01*
X015447Y019616D01*
X015312Y019560D01*
X015208Y019456D01*
X015152Y019321D01*
X015152Y019174D01*
X015208Y019039D01*
X015312Y018936D01*
X015447Y018880D01*
X015593Y018880D01*
X015729Y018936D01*
X015753Y018959D01*
X015764Y018939D01*
X015792Y018911D01*
X015827Y018891D01*
X015865Y018881D01*
X015963Y018881D01*
X015963Y019307D01*
X015963Y019732D01*
X015963Y019307D01*
X015963Y019307D01*
X015963Y019307D01*
X015963Y018881D01*
X016062Y018881D01*
X016100Y018891D01*
X016117Y018901D01*
X016285Y018901D01*
X016285Y018421D01*
X016435Y018271D01*
X016479Y018227D01*
X016259Y018227D01*
X016183Y018151D01*
X016183Y018133D01*
X016177Y018155D01*
X016157Y018189D01*
X016129Y018217D01*
X016095Y018237D01*
X016057Y018247D01*
X015869Y018247D01*
X015869Y017948D01*
X015772Y017948D01*
X015772Y017852D01*
X015454Y017852D01*
X015454Y017683D01*
X015464Y017645D01*
X015484Y017611D01*
X015512Y017583D01*
X015546Y017563D01*
X015584Y017553D01*
X015772Y017553D01*
X015772Y017852D01*
X015869Y017852D01*
X015869Y017553D01*
X015892Y017553D01*
X015892Y017255D01*
X015864Y017255D01*
X015752Y017209D01*
X015666Y017123D01*
X015620Y017011D01*
X015620Y016889D01*
X015666Y016777D01*
X015752Y016691D01*
X015864Y016645D01*
X015907Y016645D01*
X015907Y016588D01*
X015722Y016588D01*
X015719Y016585D01*
X015716Y016588D01*
X015551Y016588D01*
X015551Y017071D01*
X015435Y017187D01*
X015312Y017310D01*
X014176Y017310D01*
X014176Y017351D01*
X014100Y017427D01*
X013559Y017427D01*
X013483Y017351D01*
X013483Y017333D01*
X013477Y017355D01*
X013457Y017389D01*
X013429Y017417D01*
X013395Y017437D01*
X013357Y017447D01*
X013169Y017447D01*
X013169Y017148D01*
X013072Y017148D01*
X013072Y017052D01*
X012754Y017052D01*
X012754Y016883D01*
X012764Y016845D01*
X012784Y016811D01*
X012812Y016783D01*
X012846Y016763D01*
X012884Y016753D01*
X013072Y016753D01*
X013072Y017052D01*
X013169Y017052D01*
X013169Y016753D01*
X013357Y016753D01*
X013395Y016763D01*
X013429Y016783D01*
X013457Y016811D01*
X013477Y016845D01*
X013483Y016867D01*
X013483Y016849D01*
X013559Y016773D01*
X014100Y016773D01*
X014176Y016849D01*
X014176Y016890D01*
X015131Y016890D01*
X015131Y016588D01*
X014966Y016588D01*
X014963Y016585D01*
X014960Y016588D01*
X014714Y016588D01*
X014638Y016512D01*
X014638Y016261D01*
X014615Y016238D01*
X014615Y016047D01*
X014584Y016123D01*
X014498Y016209D01*
X014386Y016255D01*
X014264Y016255D01*
X014152Y016209D01*
X014084Y016140D01*
X013196Y016140D01*
X013046Y015990D01*
X012935Y015879D01*
X012935Y015427D01*
X012850Y015427D01*
X012774Y015351D01*
X012774Y014849D01*
X012850Y014773D01*
X012867Y014773D01*
X012866Y014773D01*
X012820Y014661D01*
X012820Y014539D01*
X012866Y014427D01*
X012952Y014341D01*
X013064Y014295D01*
X013186Y014295D01*
X013298Y014341D01*
X013384Y014427D01*
X013430Y014539D01*
X013430Y014661D01*
X013384Y014773D01*
X013383Y014773D01*
X013391Y014773D01*
X013467Y014849D01*
X013467Y015351D01*
X013391Y015427D01*
X013315Y015427D01*
X013315Y015721D01*
X013354Y015760D01*
X014084Y015760D01*
X014152Y015691D01*
X014264Y015645D01*
X014386Y015645D01*
X014498Y015691D01*
X014584Y015777D01*
X014615Y015853D01*
X014615Y015721D01*
X014566Y015673D01*
X014520Y015561D01*
X014520Y015439D01*
X014566Y015327D01*
X014604Y015290D01*
X014176Y015290D01*
X014176Y015351D01*
X014100Y015427D01*
X013559Y015427D01*
X013483Y015351D01*
X013483Y014849D01*
X013559Y014773D01*
X014100Y014773D01*
X014176Y014849D01*
X014176Y014910D01*
X014238Y014910D01*
X014188Y014860D01*
X014065Y014737D01*
X014065Y014371D01*
X014016Y014323D01*
X013970Y014211D01*
X013970Y014089D01*
X014016Y013977D01*
X014102Y013891D01*
X014214Y013845D01*
X014336Y013845D01*
X014448Y013891D01*
X014534Y013977D01*
X014580Y014089D01*
X014580Y014211D01*
X014534Y014323D01*
X014485Y014371D01*
X014485Y014540D01*
X016312Y014540D01*
X016435Y014663D01*
X016567Y014795D01*
X016567Y015327D01*
X016644Y015295D01*
X016766Y015295D01*
X016878Y015341D01*
X016946Y015410D01*
X017346Y015410D01*
X017385Y015371D01*
X017399Y015357D01*
X017399Y015029D01*
X017336Y015055D01*
X017214Y015055D01*
X017102Y015009D01*
X017016Y014923D01*
X016970Y014811D01*
X016970Y014689D01*
X017016Y014577D01*
X017102Y014491D01*
X017173Y014462D01*
X016982Y014462D01*
X016979Y014459D01*
X016976Y014462D01*
X016730Y014462D01*
X016727Y014459D01*
X016724Y014462D01*
X016478Y014462D01*
X016475Y014459D01*
X016472Y014462D01*
X016226Y014462D01*
X016223Y014459D01*
X016220Y014462D01*
X015974Y014462D01*
X015971Y014459D01*
X015968Y014462D01*
X015722Y014462D01*
X015719Y014459D01*
X015716Y014462D01*
X015470Y014462D01*
X015467Y014459D01*
X015464Y014462D01*
X015218Y014462D01*
X015215Y014459D01*
X015212Y014462D01*
X014981Y014462D01*
X014964Y014472D01*
X014926Y014482D01*
X014837Y014482D01*
X014749Y014482D01*
X014710Y014472D01*
X014676Y014452D01*
X014648Y014424D01*
X014629Y014390D01*
X014618Y014352D01*
X014618Y014037D01*
X014618Y013790D01*
X007354Y013790D01*
X007315Y013829D01*
X007315Y014590D01*
X008229Y014590D01*
X008305Y014666D01*
X008305Y015534D01*
X008229Y015610D01*
X006021Y015610D01*
X005945Y015534D01*
X005945Y014666D01*
X006021Y014590D01*
X006935Y014590D01*
X006935Y013671D01*
X007016Y013590D01*
X003515Y013590D01*
X003515Y014590D01*
X004429Y014590D01*
X004505Y014666D01*
X004505Y015534D01*
X004429Y015610D01*
X002221Y015610D01*
X002145Y015534D01*
X002145Y014666D01*
X002221Y014590D01*
X003135Y014590D01*
X003135Y013421D01*
X003246Y013310D01*
X003246Y013310D01*
X003346Y013210D01*
X006466Y013210D01*
X006296Y013040D01*
X006185Y012929D01*
X006185Y011540D01*
X005562Y011540D01*
X005612Y011590D01*
X005735Y011713D01*
X005735Y011816D01*
X005808Y011889D01*
X005808Y012311D01*
X005732Y012387D01*
X005309Y012387D01*
X005233Y012311D01*
X005217Y012010D02*
X005233Y012010D01*
X005233Y011912D02*
X005217Y011912D01*
X005638Y011616D02*
X006185Y011616D01*
X006185Y011715D02*
X005735Y011715D01*
X005735Y011813D02*
X006185Y011813D01*
X006185Y011912D02*
X005808Y011912D01*
X005808Y012010D02*
X006185Y012010D01*
X006185Y012109D02*
X005808Y012109D01*
X005808Y012207D02*
X006185Y012207D01*
X006185Y012306D02*
X005808Y012306D01*
X006185Y012404D02*
X004538Y012404D01*
X004412Y012404D02*
X000360Y012404D01*
X000360Y012306D02*
X004249Y012306D01*
X004189Y012207D02*
X000360Y012207D01*
X000360Y012109D02*
X004170Y012109D01*
X004182Y012010D02*
X000360Y012010D01*
X000360Y011912D02*
X004232Y011912D01*
X003191Y011813D02*
X000360Y011813D01*
X000360Y011715D02*
X003093Y011715D01*
X002994Y011616D02*
X000360Y011616D01*
X000360Y011518D02*
X002965Y011518D01*
X002965Y011419D02*
X000360Y011419D01*
X000360Y011321D02*
X002965Y011321D01*
X002965Y011222D02*
X000360Y011222D01*
X000360Y011124D02*
X002965Y011124D01*
X002965Y011025D02*
X000360Y011025D01*
X000360Y010927D02*
X002965Y010927D01*
X002965Y010828D02*
X000360Y010828D01*
X000360Y010730D02*
X002965Y010730D01*
X002965Y010631D02*
X000360Y010631D01*
X000360Y010533D02*
X002965Y010533D01*
X002965Y010434D02*
X000360Y010434D01*
X000360Y010336D02*
X002262Y010336D01*
X002125Y010237D02*
X000360Y010237D01*
X000360Y010139D02*
X002026Y010139D01*
X001957Y010040D02*
X000360Y010040D01*
X000360Y009942D02*
X001916Y009942D01*
X001875Y009843D02*
X000360Y009843D01*
X000360Y009745D02*
X001858Y009745D01*
X001858Y009646D02*
X000360Y009646D01*
X000360Y009548D02*
X001858Y009548D01*
X001876Y009449D02*
X000360Y009449D01*
X000360Y009351D02*
X001917Y009351D01*
X001958Y009252D02*
X000360Y009252D01*
X000360Y009154D02*
X002029Y009154D01*
X002128Y009055D02*
X000360Y009055D01*
X000360Y008957D02*
X002268Y008957D01*
X003009Y008957D02*
X007441Y008957D01*
X007301Y009055D02*
X003149Y009055D01*
X003248Y009154D02*
X007202Y009154D01*
X007131Y009252D02*
X003319Y009252D01*
X003360Y009351D02*
X007090Y009351D01*
X007050Y009449D02*
X003400Y009449D01*
X003418Y009548D02*
X007032Y009548D01*
X007032Y009646D02*
X003418Y009646D01*
X003418Y009745D02*
X007032Y009745D01*
X007048Y009843D02*
X003402Y009843D01*
X003361Y009942D02*
X007089Y009942D01*
X007062Y010040D02*
X007130Y010040D01*
X007160Y010139D02*
X007200Y010139D01*
X007259Y010237D02*
X007298Y010237D01*
X007357Y010336D02*
X007435Y010336D01*
X007063Y010635D02*
X007068Y010666D01*
X006651Y010666D01*
X006651Y010763D01*
X007068Y010763D01*
X007058Y010824D01*
X007036Y010893D01*
X007002Y010959D01*
X006959Y011018D01*
X006907Y011070D01*
X006848Y011113D01*
X006782Y011147D01*
X006713Y011169D01*
X006815Y011271D01*
X006815Y012721D01*
X006904Y012810D01*
X012861Y012810D01*
X012820Y012711D01*
X012820Y012589D01*
X012866Y012477D01*
X012915Y012429D01*
X012915Y012387D01*
X012809Y012387D01*
X012733Y012311D01*
X012733Y011890D01*
X012717Y011890D01*
X012717Y012311D01*
X012641Y012387D01*
X012218Y012387D01*
X012142Y012311D01*
X012142Y012310D01*
X012046Y012310D01*
X011998Y012359D01*
X011886Y012405D01*
X011764Y012405D01*
X011652Y012359D01*
X011566Y012273D01*
X011520Y012161D01*
X011520Y012039D01*
X011566Y011927D01*
X011652Y011841D01*
X011764Y011795D01*
X011886Y011795D01*
X011998Y011841D01*
X012046Y011890D01*
X012142Y011890D01*
X012142Y011889D01*
X012218Y011813D01*
X011929Y011813D01*
X011721Y011813D02*
X006815Y011813D01*
X006815Y011715D02*
X012242Y011715D01*
X012235Y011721D02*
X012346Y011610D01*
X012381Y011575D01*
X012246Y011440D01*
X012135Y011329D01*
X012135Y011117D01*
X012078Y011093D01*
X011952Y010967D01*
X011884Y010803D01*
X011884Y010625D01*
X011952Y010461D01*
X012004Y010410D01*
X011675Y010410D01*
X011726Y010461D01*
X011794Y010625D01*
X011794Y010803D01*
X011726Y010967D01*
X011600Y011093D01*
X011436Y011161D01*
X011258Y011161D01*
X011094Y011093D01*
X010968Y010967D01*
X010900Y010803D01*
X010900Y010625D01*
X010938Y010534D01*
X010785Y010687D01*
X010662Y010810D01*
X007238Y010810D01*
X007063Y010635D01*
X007158Y010730D02*
X006651Y010730D01*
X006555Y010730D02*
X006066Y010730D01*
X006066Y010803D02*
X006066Y010625D01*
X005998Y010461D01*
X005946Y010410D01*
X006247Y010410D01*
X006247Y010410D01*
X006204Y010470D01*
X006170Y010535D01*
X006148Y010605D01*
X006138Y010666D01*
X006555Y010666D01*
X006555Y010763D01*
X006138Y010763D01*
X006148Y010824D01*
X006170Y010893D01*
X006204Y010959D01*
X006205Y010960D01*
X006001Y010960D01*
X006066Y010803D01*
X006055Y010828D02*
X006149Y010828D01*
X006187Y010927D02*
X006014Y010927D01*
X006066Y010631D02*
X006143Y010631D01*
X006172Y010533D02*
X006027Y010533D01*
X005970Y010434D02*
X006230Y010434D01*
X006828Y011124D02*
X011167Y011124D01*
X011026Y011025D02*
X006952Y011025D01*
X007019Y010927D02*
X010951Y010927D01*
X010910Y010828D02*
X007057Y010828D01*
X006766Y011222D02*
X012135Y011222D01*
X012135Y011124D02*
X011527Y011124D01*
X011668Y011025D02*
X012010Y011025D01*
X011936Y010927D02*
X011743Y010927D01*
X011784Y010828D02*
X011895Y010828D01*
X011884Y010730D02*
X011794Y010730D01*
X011794Y010631D02*
X011884Y010631D01*
X011923Y010533D02*
X011755Y010533D01*
X011699Y010434D02*
X011980Y010434D01*
X012611Y010361D02*
X012762Y010210D01*
X012885Y010087D01*
X012885Y008737D01*
X012912Y008710D01*
X016488Y008710D01*
X016615Y008837D01*
X016615Y010273D01*
X016559Y010273D01*
X016483Y010349D01*
X016483Y010851D01*
X016559Y010927D01*
X017100Y010927D01*
X017176Y010851D01*
X017176Y010810D01*
X018262Y010810D01*
X018400Y010672D01*
X018400Y010803D01*
X018468Y010967D01*
X018594Y011093D01*
X018758Y011161D01*
X018936Y011161D01*
X019100Y011093D01*
X019226Y010967D01*
X019294Y010803D01*
X019294Y010625D01*
X019226Y010461D01*
X019125Y010360D01*
X019554Y010360D01*
X019452Y010461D01*
X019384Y010625D01*
X019384Y010803D01*
X019452Y010967D01*
X019578Y011093D01*
X019618Y011110D01*
X019538Y011190D01*
X016738Y011190D01*
X016514Y011414D01*
X016391Y011537D01*
X016391Y012447D01*
X016254Y012310D01*
X015354Y012310D01*
X015315Y012271D01*
X015315Y011271D01*
X015204Y011160D01*
X015204Y011160D01*
X015165Y011121D01*
X015165Y011121D01*
X015054Y011010D01*
X014465Y011010D01*
X014502Y010959D01*
X014536Y010893D01*
X014558Y010824D01*
X014568Y010763D01*
X014151Y010763D01*
X014151Y010666D01*
X014151Y010249D01*
X014212Y010259D01*
X014282Y010282D01*
X014348Y010315D01*
X014407Y010358D01*
X014459Y010410D01*
X014502Y010470D01*
X014536Y010535D01*
X014558Y010605D01*
X014568Y010666D01*
X014151Y010666D01*
X014055Y010666D01*
X014055Y010249D01*
X013994Y010259D01*
X013924Y010282D01*
X013858Y010315D01*
X013799Y010358D01*
X013747Y010410D01*
X013704Y010470D01*
X013670Y010535D01*
X013648Y010605D01*
X013638Y010666D01*
X014055Y010666D01*
X014055Y010763D01*
X013638Y010763D01*
X013648Y010824D01*
X013670Y010893D01*
X013704Y010959D01*
X013741Y011010D01*
X013455Y011010D01*
X013498Y010967D01*
X013566Y010803D01*
X013566Y010625D01*
X013498Y010461D01*
X013372Y010335D01*
X013208Y010267D01*
X013030Y010267D01*
X012866Y010335D01*
X012740Y010461D01*
X012725Y010497D01*
X012710Y010461D01*
X012611Y010361D01*
X012636Y010336D02*
X012865Y010336D01*
X012767Y010434D02*
X012683Y010434D01*
X012735Y010237D02*
X014798Y010237D01*
X014870Y010309D02*
X014650Y010089D01*
X014532Y009802D01*
X014532Y009492D01*
X014650Y009205D01*
X014870Y008986D01*
X015157Y008867D01*
X015467Y008867D01*
X015753Y008986D01*
X015973Y009205D01*
X016092Y009492D01*
X016092Y009802D01*
X015973Y010089D01*
X015753Y010309D01*
X015467Y010427D01*
X015157Y010427D01*
X014870Y010309D01*
X014935Y010336D02*
X014376Y010336D01*
X014476Y010434D02*
X015774Y010434D01*
X015774Y010349D02*
X015850Y010273D01*
X016391Y010273D01*
X016467Y010349D01*
X016467Y010851D01*
X016391Y010927D01*
X016311Y010927D01*
X016311Y011679D01*
X016199Y011790D01*
X016096Y011894D01*
X016084Y011923D01*
X015998Y012009D01*
X015886Y012055D01*
X015764Y012055D01*
X015652Y012009D01*
X015566Y011923D01*
X015520Y011811D01*
X015520Y011689D01*
X015566Y011577D01*
X015652Y011491D01*
X015764Y011445D01*
X015886Y011445D01*
X015931Y011464D01*
X015931Y010927D01*
X015850Y010927D01*
X015774Y010851D01*
X015774Y010349D01*
X015788Y010336D02*
X015688Y010336D01*
X015825Y010237D02*
X016615Y010237D01*
X016615Y010139D02*
X015924Y010139D01*
X015993Y010040D02*
X016615Y010040D01*
X016615Y009942D02*
X016034Y009942D01*
X016075Y009843D02*
X016615Y009843D01*
X016615Y009745D02*
X016092Y009745D01*
X016092Y009646D02*
X016615Y009646D01*
X016615Y009548D02*
X016092Y009548D01*
X016074Y009449D02*
X016615Y009449D01*
X016615Y009351D02*
X016033Y009351D01*
X015992Y009252D02*
X016615Y009252D01*
X016615Y009154D02*
X015921Y009154D01*
X015822Y009055D02*
X016615Y009055D01*
X016615Y008957D02*
X015682Y008957D01*
X014941Y008957D02*
X012885Y008957D01*
X012885Y009055D02*
X014801Y009055D01*
X014702Y009154D02*
X012885Y009154D01*
X012885Y009252D02*
X014631Y009252D01*
X014590Y009351D02*
X012885Y009351D01*
X012885Y009449D02*
X014550Y009449D01*
X014532Y009548D02*
X012885Y009548D01*
X012885Y009646D02*
X014532Y009646D01*
X014532Y009745D02*
X012885Y009745D01*
X012885Y009843D02*
X014548Y009843D01*
X014589Y009942D02*
X012885Y009942D01*
X012885Y010040D02*
X014630Y010040D01*
X014700Y010139D02*
X012833Y010139D01*
X012437Y009942D02*
X010861Y009942D01*
X010838Y010040D02*
X010820Y010040D01*
X010902Y009843D02*
X012465Y009843D01*
X012465Y009745D02*
X010918Y009745D01*
X010918Y009646D02*
X012465Y009646D01*
X012465Y009548D02*
X010918Y009548D01*
X010900Y009449D02*
X012465Y009449D01*
X012465Y009351D02*
X010860Y009351D01*
X010819Y009252D02*
X012465Y009252D01*
X012465Y009154D02*
X010748Y009154D01*
X010649Y009055D02*
X012465Y009055D01*
X012465Y008957D02*
X010509Y008957D01*
X009768Y008957D02*
X008182Y008957D01*
X008322Y009055D02*
X009628Y009055D01*
X009529Y009154D02*
X008421Y009154D01*
X008492Y009252D02*
X009458Y009252D01*
X009417Y009351D02*
X008533Y009351D01*
X008574Y009449D02*
X009376Y009449D01*
X009358Y009548D02*
X008592Y009548D01*
X008592Y009646D02*
X009358Y009646D01*
X009358Y009745D02*
X008592Y009745D01*
X008575Y009843D02*
X009375Y009843D01*
X009416Y009942D02*
X008534Y009942D01*
X008493Y010040D02*
X009457Y010040D01*
X009526Y010139D02*
X008424Y010139D01*
X008325Y010237D02*
X009625Y010237D01*
X009762Y010336D02*
X008188Y010336D01*
X006815Y011321D02*
X012135Y011321D01*
X012225Y011419D02*
X006815Y011419D01*
X006815Y011518D02*
X012324Y011518D01*
X012340Y011616D02*
X006815Y011616D01*
X006815Y011912D02*
X011582Y011912D01*
X011532Y012010D02*
X006815Y012010D01*
X006815Y012109D02*
X011520Y012109D01*
X011539Y012207D02*
X006815Y012207D01*
X006815Y012306D02*
X011599Y012306D01*
X011762Y012404D02*
X006815Y012404D01*
X006815Y012503D02*
X012856Y012503D01*
X012820Y012601D02*
X006815Y012601D01*
X006815Y012700D02*
X012820Y012700D01*
X012856Y012798D02*
X006892Y012798D01*
X006350Y013094D02*
X000360Y013094D01*
X000360Y013192D02*
X006448Y013192D01*
X006251Y012995D02*
X000360Y012995D01*
X000360Y012897D02*
X006185Y012897D01*
X006185Y012798D02*
X000360Y012798D01*
X000360Y012700D02*
X006185Y012700D01*
X006185Y012601D02*
X000360Y012601D01*
X000360Y012503D02*
X006185Y012503D01*
X006935Y013685D02*
X003515Y013685D01*
X003515Y013783D02*
X006935Y013783D01*
X006935Y013882D02*
X003515Y013882D01*
X003515Y013980D02*
X006935Y013980D01*
X006935Y014079D02*
X003515Y014079D01*
X003515Y014177D02*
X006935Y014177D01*
X006935Y014276D02*
X003515Y014276D01*
X003515Y014374D02*
X006935Y014374D01*
X006935Y014473D02*
X003515Y014473D01*
X003515Y014571D02*
X006935Y014571D01*
X007315Y014571D02*
X012820Y014571D01*
X012824Y014670D02*
X008305Y014670D01*
X008305Y014768D02*
X012864Y014768D01*
X012774Y014867D02*
X008305Y014867D01*
X008305Y014965D02*
X012774Y014965D01*
X012774Y015064D02*
X008305Y015064D01*
X008305Y015162D02*
X012774Y015162D01*
X012774Y015261D02*
X008305Y015261D01*
X008305Y015359D02*
X012782Y015359D01*
X012935Y015458D02*
X008305Y015458D01*
X008283Y015556D02*
X012935Y015556D01*
X012935Y015655D02*
X000360Y015655D01*
X000360Y015753D02*
X012935Y015753D01*
X012935Y015852D02*
X000360Y015852D01*
X000360Y015950D02*
X013006Y015950D01*
X013105Y016049D02*
X000360Y016049D01*
X000360Y016147D02*
X014091Y016147D01*
X014241Y016246D02*
X000360Y016246D01*
X000360Y016344D02*
X014638Y016344D01*
X014638Y016443D02*
X000360Y016443D01*
X000360Y016541D02*
X014667Y016541D01*
X014623Y016246D02*
X014409Y016246D01*
X014559Y016147D02*
X014615Y016147D01*
X014614Y016049D02*
X014615Y016049D01*
X014614Y015852D02*
X014615Y015852D01*
X014615Y015753D02*
X014559Y015753D01*
X014559Y015655D02*
X014409Y015655D01*
X014520Y015556D02*
X013315Y015556D01*
X013315Y015458D02*
X014520Y015458D01*
X014553Y015359D02*
X014168Y015359D01*
X014241Y015655D02*
X013315Y015655D01*
X013347Y015753D02*
X014091Y015753D01*
X013491Y015359D02*
X013459Y015359D01*
X013467Y015261D02*
X013483Y015261D01*
X013483Y015162D02*
X013467Y015162D01*
X013467Y015064D02*
X013483Y015064D01*
X013483Y014965D02*
X013467Y014965D01*
X013467Y014867D02*
X013483Y014867D01*
X013386Y014768D02*
X014096Y014768D01*
X014065Y014670D02*
X013426Y014670D01*
X013430Y014571D02*
X014065Y014571D01*
X014065Y014473D02*
X013402Y014473D01*
X013330Y014374D02*
X014065Y014374D01*
X013997Y014276D02*
X007315Y014276D01*
X007315Y014374D02*
X012920Y014374D01*
X012848Y014473D02*
X007315Y014473D01*
X007315Y014177D02*
X013970Y014177D01*
X013974Y014079D02*
X007315Y014079D01*
X007315Y013980D02*
X014015Y013980D01*
X014126Y013882D02*
X007315Y013882D01*
X005945Y014670D02*
X004505Y014670D01*
X004505Y014768D02*
X005945Y014768D01*
X005945Y014867D02*
X004505Y014867D01*
X004505Y014965D02*
X005945Y014965D01*
X005945Y015064D02*
X004505Y015064D01*
X004505Y015162D02*
X005945Y015162D01*
X005945Y015261D02*
X004505Y015261D01*
X004505Y015359D02*
X005945Y015359D01*
X005945Y015458D02*
X004505Y015458D01*
X004483Y015556D02*
X005967Y015556D01*
X003135Y014571D02*
X000360Y014571D01*
X000360Y014473D02*
X003135Y014473D01*
X003135Y014374D02*
X000360Y014374D01*
X000360Y014276D02*
X003135Y014276D01*
X003135Y014177D02*
X000360Y014177D01*
X000360Y014079D02*
X003135Y014079D01*
X003135Y013980D02*
X000360Y013980D01*
X000360Y013882D02*
X003135Y013882D01*
X003135Y013783D02*
X000360Y013783D01*
X000360Y013685D02*
X003135Y013685D01*
X003135Y013586D02*
X000360Y013586D01*
X000360Y013488D02*
X003135Y013488D01*
X003167Y013389D02*
X000360Y013389D01*
X000360Y013291D02*
X003266Y013291D01*
X002145Y014670D02*
X000360Y014670D01*
X000360Y014768D02*
X002145Y014768D01*
X002145Y014867D02*
X000360Y014867D01*
X000360Y014965D02*
X002145Y014965D01*
X002145Y015064D02*
X000360Y015064D01*
X000360Y015162D02*
X002145Y015162D01*
X002145Y015261D02*
X000360Y015261D01*
X000360Y015359D02*
X002145Y015359D01*
X002145Y015458D02*
X000360Y015458D01*
X000360Y015556D02*
X002167Y015556D01*
X000360Y016640D02*
X015131Y016640D01*
X015131Y016738D02*
X000360Y016738D01*
X000360Y016837D02*
X012769Y016837D01*
X012754Y016935D02*
X000360Y016935D01*
X000360Y017034D02*
X012754Y017034D01*
X012754Y017148D02*
X013072Y017148D01*
X013072Y017447D01*
X012884Y017447D01*
X012846Y017437D01*
X012812Y017417D01*
X012784Y017389D01*
X012764Y017355D01*
X012754Y017317D01*
X012754Y017148D01*
X012754Y017231D02*
X000360Y017231D01*
X000360Y017329D02*
X012757Y017329D01*
X012830Y017428D02*
X000360Y017428D01*
X000360Y017526D02*
X015892Y017526D01*
X015892Y017428D02*
X013411Y017428D01*
X013169Y017428D02*
X013072Y017428D01*
X013072Y017329D02*
X013169Y017329D01*
X013169Y017231D02*
X013072Y017231D01*
X013072Y017132D02*
X000360Y017132D01*
X000360Y017625D02*
X015476Y017625D01*
X015454Y017723D02*
X000360Y017723D01*
X000360Y017822D02*
X015454Y017822D01*
X015454Y017948D02*
X015772Y017948D01*
X015772Y018247D01*
X015584Y018247D01*
X015546Y018237D01*
X015512Y018217D01*
X015484Y018189D01*
X015464Y018155D01*
X015454Y018117D01*
X000360Y018117D01*
X000360Y018019D02*
X015454Y018019D01*
X015454Y017948D02*
X015454Y018117D01*
X015511Y018216D02*
X000360Y018216D01*
X000360Y018314D02*
X016392Y018314D01*
X016294Y018413D02*
X000360Y018413D01*
X000360Y018511D02*
X016285Y018511D01*
X016285Y018610D02*
X000360Y018610D01*
X000360Y018708D02*
X016285Y018708D01*
X016285Y018807D02*
X000360Y018807D01*
X000360Y018905D02*
X015385Y018905D01*
X015244Y019004D02*
X000360Y019004D01*
X000360Y019102D02*
X015182Y019102D01*
X015152Y019201D02*
X000360Y019201D01*
X000360Y019299D02*
X001016Y019299D01*
X001062Y019280D02*
X001262Y019280D01*
X001388Y019280D01*
X001388Y019280D01*
X001689Y019405D01*
X001689Y019405D01*
X001920Y019636D01*
X002045Y019937D01*
X002045Y020263D01*
X001920Y020564D01*
X001920Y020564D01*
X001689Y020795D01*
X001388Y020920D01*
X001062Y020920D01*
X000761Y020795D01*
X000761Y020795D01*
X000530Y020564D01*
X000405Y020263D01*
X000405Y019937D01*
X000530Y019636D01*
X000530Y019636D01*
X000761Y019405D01*
X001062Y019280D01*
X000778Y019398D02*
X000360Y019398D01*
X000360Y019496D02*
X000669Y019496D01*
X000761Y019405D02*
X000761Y019405D01*
X000571Y019595D02*
X000360Y019595D01*
X000360Y019693D02*
X000506Y019693D01*
X000465Y019792D02*
X000360Y019792D01*
X000360Y019890D02*
X000424Y019890D01*
X000405Y019989D02*
X000360Y019989D01*
X000360Y020087D02*
X000405Y020087D01*
X000360Y020156D02*
X000359Y020156D01*
X000366Y020236D01*
X000450Y020495D01*
X000610Y020715D01*
X000830Y020875D01*
X000953Y020875D01*
X000830Y020875D02*
X001089Y020959D01*
X001169Y020966D01*
X001169Y020965D01*
X031781Y020965D01*
X031781Y020966D01*
X031861Y020959D01*
X032120Y020875D01*
X031997Y020875D01*
X031888Y020920D02*
X032189Y020795D01*
X032189Y020795D01*
X032420Y020564D01*
X032420Y020564D01*
X032545Y020263D01*
X032545Y019937D01*
X032420Y019636D01*
X032420Y019636D01*
X032189Y019405D01*
X032189Y019405D01*
X031888Y019280D01*
X031762Y019280D01*
X031562Y019280D01*
X031261Y019405D01*
X031261Y019405D01*
X031030Y019636D01*
X030905Y019937D01*
X030905Y020263D01*
X031030Y020564D01*
X031030Y020564D01*
X031261Y020795D01*
X031261Y020795D01*
X031562Y020920D01*
X031888Y020920D01*
X032120Y020875D02*
X032340Y020715D01*
X032500Y020495D01*
X032584Y020236D01*
X032591Y020156D01*
X032590Y020156D01*
X032590Y007057D01*
X032580Y006963D01*
X032485Y006698D01*
X032313Y006475D01*
X032080Y006316D01*
X031809Y006237D01*
X031723Y006233D01*
X031720Y006235D01*
X001169Y006235D01*
X001169Y006234D01*
X001089Y006241D01*
X000830Y006325D01*
X000610Y006485D01*
X000450Y006705D01*
X000366Y006964D01*
X000359Y007044D01*
X000360Y007044D01*
X000360Y020156D01*
X000362Y020186D02*
X000405Y020186D01*
X000414Y020284D02*
X000381Y020284D01*
X000413Y020383D02*
X000454Y020383D01*
X000445Y020481D02*
X000495Y020481D01*
X000530Y020564D02*
X000530Y020564D01*
X000545Y020580D02*
X000511Y020580D01*
X000583Y020678D02*
X000643Y020678D01*
X000694Y020777D02*
X000742Y020777D01*
X001497Y020875D02*
X031453Y020875D01*
X031242Y020777D02*
X018210Y020777D01*
X018193Y020794D02*
X018000Y020874D01*
X017792Y020874D01*
X017600Y020794D01*
X017452Y020647D01*
X017412Y020550D01*
X017412Y020758D01*
X017336Y020834D01*
X016520Y020834D01*
X016475Y020790D01*
X016430Y020834D01*
X015614Y020834D01*
X015538Y020758D01*
X015538Y020550D01*
X015498Y020647D01*
X015350Y020794D01*
X015158Y020874D01*
X014950Y020874D01*
X014757Y020794D01*
X014610Y020647D01*
X014530Y020454D01*
X014530Y020246D01*
X014610Y020053D01*
X014757Y019906D01*
X014950Y019826D01*
X015158Y019826D01*
X015350Y019906D01*
X015498Y020053D01*
X015538Y020150D01*
X015538Y019942D01*
X015614Y019866D01*
X016430Y019866D01*
X016475Y019910D01*
X016520Y019866D01*
X017336Y019866D01*
X017412Y019942D01*
X017412Y020150D01*
X017452Y020053D01*
X017600Y019906D01*
X017792Y019826D01*
X018000Y019826D01*
X018193Y019906D01*
X018340Y020053D01*
X018420Y020246D01*
X018420Y020454D01*
X018340Y020647D01*
X018193Y020794D01*
X018309Y020678D02*
X031143Y020678D01*
X031045Y020580D02*
X018368Y020580D01*
X018409Y020481D02*
X030995Y020481D01*
X030954Y020383D02*
X018420Y020383D01*
X018420Y020284D02*
X030914Y020284D01*
X030905Y020186D02*
X018395Y020186D01*
X018354Y020087D02*
X030905Y020087D01*
X030905Y019989D02*
X018275Y019989D01*
X018154Y019890D02*
X030924Y019890D01*
X030965Y019792D02*
X001985Y019792D01*
X002026Y019890D02*
X014796Y019890D01*
X014675Y019989D02*
X002045Y019989D01*
X002045Y020087D02*
X014596Y020087D01*
X014555Y020186D02*
X002045Y020186D01*
X002036Y020284D02*
X014530Y020284D01*
X014530Y020383D02*
X001996Y020383D01*
X001955Y020481D02*
X014541Y020481D01*
X014582Y020580D02*
X001905Y020580D01*
X001807Y020678D02*
X014641Y020678D01*
X014740Y020777D02*
X001708Y020777D01*
X001689Y020795D02*
X001689Y020795D01*
X001944Y019693D02*
X015783Y019693D01*
X015734Y019595D02*
X015645Y019595D01*
X015396Y019595D02*
X001879Y019595D01*
X001920Y019636D02*
X001920Y019636D01*
X001781Y019496D02*
X015248Y019496D01*
X015184Y019398D02*
X001672Y019398D01*
X001434Y019299D02*
X015152Y019299D01*
X015655Y018905D02*
X015803Y018905D01*
X015963Y018905D02*
X015963Y018905D01*
X015963Y019004D02*
X015963Y019004D01*
X015963Y019102D02*
X015963Y019102D01*
X015963Y019201D02*
X015963Y019201D01*
X015963Y019299D02*
X015963Y019299D01*
X015963Y019398D02*
X015963Y019398D01*
X015963Y019496D02*
X015963Y019496D01*
X015963Y019595D02*
X015963Y019595D01*
X015963Y019693D02*
X015963Y019693D01*
X015590Y019890D02*
X015312Y019890D01*
X015433Y019989D02*
X015538Y019989D01*
X015538Y020087D02*
X015512Y020087D01*
X015526Y020580D02*
X015538Y020580D01*
X015538Y020678D02*
X015466Y020678D01*
X015556Y020777D02*
X015368Y020777D01*
X016455Y019890D02*
X016495Y019890D01*
X017139Y019693D02*
X031006Y019693D01*
X031030Y019636D02*
X031030Y019636D01*
X031071Y019595D02*
X017554Y019595D01*
X017702Y019496D02*
X031169Y019496D01*
X031278Y019398D02*
X017766Y019398D01*
X017798Y019299D02*
X031516Y019299D01*
X031888Y019280D02*
X031888Y019280D01*
X031934Y019299D02*
X032590Y019299D01*
X032590Y019201D02*
X017798Y019201D01*
X017768Y019102D02*
X032590Y019102D01*
X032590Y019004D02*
X018068Y019004D01*
X018167Y018905D02*
X032590Y018905D01*
X032590Y018807D02*
X018265Y018807D01*
X018185Y018887D02*
X018185Y018887D01*
X018331Y018708D02*
X032590Y018708D01*
X032590Y018610D02*
X018331Y018610D01*
X018331Y018511D02*
X032590Y018511D01*
X032590Y018413D02*
X019142Y018413D01*
X019196Y018314D02*
X032590Y018314D01*
X032590Y018216D02*
X019196Y018216D01*
X019196Y018052D02*
X018878Y018052D01*
X018878Y017753D01*
X019066Y017753D01*
X019104Y017763D01*
X019138Y017783D01*
X019166Y017811D01*
X019186Y017845D01*
X019196Y017883D01*
X019196Y018052D01*
X019196Y018019D02*
X032590Y018019D01*
X032590Y018117D02*
X018878Y018117D01*
X018878Y018019D02*
X018781Y018019D01*
X018781Y017920D02*
X018878Y017920D01*
X018878Y017822D02*
X018781Y017822D01*
X018781Y017625D02*
X018878Y017625D01*
X018878Y017526D02*
X018781Y017526D01*
X018781Y017428D02*
X018878Y017428D01*
X018878Y017329D02*
X032590Y017329D01*
X032590Y017231D02*
X019196Y017231D01*
X019196Y017132D02*
X032590Y017132D01*
X032590Y017034D02*
X019179Y017034D01*
X019196Y017428D02*
X032590Y017428D01*
X032590Y017526D02*
X019193Y017526D01*
X019125Y017625D02*
X032590Y017625D01*
X032590Y017723D02*
X018331Y017723D01*
X018393Y017625D02*
X018534Y017625D01*
X018487Y017822D02*
X018439Y017822D01*
X018781Y018216D02*
X018878Y018216D01*
X018878Y018314D02*
X018781Y018314D01*
X018781Y018413D02*
X018878Y018413D01*
X018516Y018413D02*
X018405Y018413D01*
X019196Y017920D02*
X032590Y017920D01*
X032590Y017822D02*
X019172Y017822D01*
X018696Y016590D02*
X020015Y016590D01*
X020015Y015801D01*
X019974Y015801D01*
X019898Y015725D01*
X019898Y015184D01*
X019974Y015108D01*
X020476Y015108D01*
X020535Y015167D01*
X020535Y015033D01*
X020476Y015092D01*
X019974Y015092D01*
X019898Y015016D01*
X019898Y014475D01*
X019974Y014399D01*
X020476Y014399D01*
X020552Y014475D01*
X020552Y014536D01*
X020898Y014536D01*
X020898Y014475D01*
X020974Y014399D01*
X021476Y014399D01*
X021552Y014475D01*
X021552Y015016D01*
X021476Y015092D01*
X021458Y015092D01*
X021480Y015098D01*
X021514Y015118D01*
X021542Y015146D01*
X021562Y015180D01*
X021572Y015218D01*
X021572Y015406D01*
X021273Y015406D01*
X021273Y015503D01*
X021177Y015503D01*
X021177Y015821D01*
X021008Y015821D01*
X020970Y015811D01*
X020936Y015791D01*
X020915Y015770D01*
X020915Y016059D01*
X020984Y016127D01*
X021030Y016239D01*
X021030Y016361D01*
X020984Y016473D01*
X020898Y016559D01*
X020822Y016590D01*
X029388Y016590D01*
X029465Y016513D01*
X029465Y011010D01*
X029459Y011018D01*
X029407Y011070D01*
X029348Y011113D01*
X029282Y011147D01*
X029212Y011170D01*
X029151Y011179D01*
X029151Y010763D01*
X029055Y010763D01*
X029055Y011179D01*
X028994Y011170D01*
X028924Y011147D01*
X028858Y011113D01*
X028799Y011070D01*
X028747Y011018D01*
X028704Y010959D01*
X028670Y010893D01*
X028648Y010824D01*
X028638Y010763D01*
X029055Y010763D01*
X029055Y010666D01*
X028638Y010666D01*
X028648Y010605D01*
X028670Y010535D01*
X028704Y010470D01*
X028747Y010410D01*
X028797Y010360D01*
X028396Y010360D01*
X028498Y010461D01*
X028566Y010625D01*
X028566Y010803D01*
X028498Y010967D01*
X028372Y011093D01*
X028329Y011111D01*
X028329Y011293D01*
X028206Y011416D01*
X027912Y011710D01*
X022722Y011710D01*
X022615Y011817D01*
X022615Y013387D01*
X022492Y013510D01*
X022242Y013760D01*
X018312Y013760D01*
X018312Y013939D01*
X018323Y013950D01*
X018323Y014451D01*
X018408Y014536D01*
X018898Y014536D01*
X018898Y014475D01*
X018974Y014399D01*
X019476Y014399D01*
X019552Y014475D01*
X019552Y015016D01*
X019476Y015092D01*
X019458Y015092D01*
X019480Y015098D01*
X019514Y015118D01*
X019542Y015146D01*
X019562Y015180D01*
X019572Y015218D01*
X019572Y015406D01*
X019273Y015406D01*
X019273Y015503D01*
X019177Y015503D01*
X019177Y015821D01*
X019008Y015821D01*
X018970Y015811D01*
X018936Y015791D01*
X018908Y015763D01*
X018888Y015729D01*
X018878Y015691D01*
X018878Y015503D01*
X019177Y015503D01*
X019177Y015406D01*
X018878Y015406D01*
X018878Y015218D01*
X018888Y015180D01*
X018908Y015146D01*
X018936Y015118D01*
X018970Y015098D01*
X018992Y015092D01*
X018974Y015092D01*
X018898Y015016D01*
X018898Y014956D01*
X018234Y014956D01*
X018111Y014833D01*
X018025Y014747D01*
X017948Y014824D01*
X017819Y014953D01*
X017819Y015537D01*
X017819Y015738D01*
X017984Y015738D01*
X017987Y015741D01*
X017990Y015738D01*
X018236Y015738D01*
X018312Y015814D01*
X018312Y016512D01*
X018303Y016521D01*
X018303Y016541D01*
X018303Y016541D01*
X018414Y016495D01*
X018536Y016495D01*
X018648Y016541D01*
X018696Y016590D01*
X018647Y016541D02*
X020015Y016541D01*
X020015Y016443D02*
X018312Y016443D01*
X018312Y016344D02*
X020015Y016344D01*
X020015Y016246D02*
X018312Y016246D01*
X018312Y016147D02*
X020015Y016147D01*
X020015Y016049D02*
X018312Y016049D01*
X018312Y015950D02*
X020015Y015950D01*
X020015Y015852D02*
X018312Y015852D01*
X018251Y015753D02*
X018902Y015753D01*
X018878Y015655D02*
X017819Y015655D01*
X017819Y015556D02*
X018878Y015556D01*
X018878Y015359D02*
X017819Y015359D01*
X017819Y015261D02*
X018878Y015261D01*
X018899Y015162D02*
X017819Y015162D01*
X017819Y015064D02*
X018946Y015064D01*
X018898Y014965D02*
X017819Y014965D01*
X017905Y014867D02*
X018145Y014867D01*
X018046Y014768D02*
X018004Y014768D01*
X018345Y014473D02*
X018901Y014473D01*
X018323Y014374D02*
X027240Y014374D01*
X027240Y014276D02*
X018323Y014276D01*
X018323Y014177D02*
X027240Y014177D01*
X027240Y014079D02*
X018323Y014079D01*
X018323Y013980D02*
X027240Y013980D01*
X027240Y013882D02*
X018312Y013882D01*
X018312Y013783D02*
X027240Y013783D01*
X027240Y013685D02*
X022317Y013685D01*
X022416Y013586D02*
X027240Y013586D01*
X027240Y013488D02*
X022514Y013488D01*
X022613Y013389D02*
X027240Y013389D01*
X027240Y013291D02*
X022615Y013291D01*
X022615Y013192D02*
X027240Y013192D01*
X027240Y013094D02*
X022615Y013094D01*
X022615Y012995D02*
X027240Y012995D01*
X027240Y012897D02*
X022615Y012897D01*
X022615Y012798D02*
X027240Y012798D01*
X027240Y012700D02*
X022615Y012700D01*
X022615Y012601D02*
X027240Y012601D01*
X027240Y012503D02*
X022615Y012503D01*
X022615Y012404D02*
X027240Y012404D01*
X027240Y012387D02*
X027218Y012387D01*
X027142Y012311D01*
X027142Y011889D01*
X027218Y011813D01*
X022619Y011813D01*
X022615Y011912D02*
X027142Y011912D01*
X027142Y012010D02*
X022615Y012010D01*
X022615Y012109D02*
X027142Y012109D01*
X027142Y012207D02*
X022615Y012207D01*
X022615Y012306D02*
X027142Y012306D01*
X027240Y012387D02*
X027240Y015645D01*
X027214Y015645D01*
X027102Y015691D01*
X027016Y015777D01*
X026970Y015889D01*
X026970Y016011D01*
X027016Y016123D01*
X027102Y016209D01*
X027214Y016255D01*
X027336Y016255D01*
X027448Y016209D01*
X027534Y016123D01*
X027580Y016011D01*
X027580Y015914D01*
X027620Y015874D01*
X027620Y012387D01*
X027641Y012387D01*
X027717Y012311D01*
X027717Y011889D01*
X027641Y011813D01*
X027218Y011813D01*
X027642Y011813D02*
X027808Y011813D01*
X027809Y011813D02*
X027733Y011889D01*
X027733Y012311D01*
X027809Y012387D01*
X028232Y012387D01*
X028308Y012311D01*
X028308Y012310D01*
X028504Y012310D01*
X028552Y012359D01*
X028664Y012405D01*
X028786Y012405D01*
X028898Y012359D01*
X028984Y012273D01*
X029030Y012161D01*
X029030Y012039D01*
X028984Y011927D01*
X028898Y011841D01*
X028786Y011795D01*
X028664Y011795D01*
X028552Y011841D01*
X028504Y011890D01*
X028308Y011890D01*
X028308Y011889D01*
X028232Y011813D01*
X028621Y011813D01*
X028829Y011813D02*
X029465Y011813D01*
X029465Y011715D02*
X022717Y011715D01*
X021915Y011715D02*
X021107Y011715D01*
X021135Y011616D02*
X021915Y011616D01*
X021915Y011518D02*
X021135Y011518D01*
X021135Y011419D02*
X021915Y011419D01*
X021938Y011321D02*
X021135Y011321D01*
X021150Y011222D02*
X022036Y011222D01*
X022135Y011124D02*
X021828Y011124D01*
X021848Y011113D02*
X021782Y011147D01*
X021712Y011170D01*
X021651Y011179D01*
X021651Y010763D01*
X022068Y010763D01*
X022058Y010824D01*
X022036Y010893D01*
X022002Y010959D01*
X021959Y011018D01*
X021907Y011070D01*
X021848Y011113D01*
X021952Y011025D02*
X022233Y011025D01*
X022019Y010927D02*
X025951Y010927D01*
X025910Y010828D02*
X022057Y010828D01*
X022062Y010631D02*
X025900Y010631D01*
X025900Y010730D02*
X021651Y010730D01*
X021651Y010828D02*
X021555Y010828D01*
X021555Y010927D02*
X021651Y010927D01*
X021651Y011025D02*
X021555Y011025D01*
X021555Y011124D02*
X021651Y011124D01*
X021378Y011124D02*
X021248Y011124D01*
X021555Y010631D02*
X021651Y010631D01*
X021651Y010533D02*
X021555Y010533D01*
X021555Y010434D02*
X021651Y010434D01*
X021651Y010336D02*
X021555Y010336D01*
X021309Y010237D02*
X022298Y010237D01*
X022370Y010309D02*
X022150Y010089D01*
X022032Y009802D01*
X022032Y009492D01*
X022150Y009205D01*
X022370Y008986D01*
X022657Y008867D01*
X022967Y008867D01*
X023253Y008986D01*
X023473Y009205D01*
X023592Y009492D01*
X023592Y009802D01*
X023473Y010089D01*
X023253Y010309D01*
X022967Y010427D01*
X022657Y010427D01*
X022370Y010309D01*
X022435Y010336D02*
X021876Y010336D01*
X021976Y010434D02*
X025995Y010434D01*
X025939Y010533D02*
X022034Y010533D01*
X022200Y010139D02*
X021210Y010139D01*
X021112Y010040D02*
X022130Y010040D01*
X022089Y009942D02*
X021013Y009942D01*
X022032Y009745D02*
X018418Y009745D01*
X018418Y009646D02*
X022032Y009646D01*
X022032Y009548D02*
X018418Y009548D01*
X018400Y009449D02*
X022050Y009449D01*
X022090Y009351D02*
X018360Y009351D01*
X018319Y009252D02*
X022131Y009252D01*
X022202Y009154D02*
X018248Y009154D01*
X018149Y009055D02*
X022301Y009055D01*
X022441Y008957D02*
X018009Y008957D01*
X017268Y008957D02*
X017035Y008957D01*
X017035Y009055D02*
X017128Y009055D01*
X017035Y008858D02*
X032590Y008858D01*
X032590Y008760D02*
X017035Y008760D01*
X017033Y008661D02*
X032590Y008661D01*
X032590Y008563D02*
X016934Y008563D01*
X016836Y008464D02*
X032590Y008464D01*
X032590Y008366D02*
X016737Y008366D01*
X016538Y008760D02*
X012885Y008760D01*
X012885Y008858D02*
X016615Y008858D01*
X018402Y009843D02*
X022048Y009843D01*
X023188Y010336D02*
X024762Y010336D01*
X024697Y010309D02*
X024477Y010089D01*
X024358Y009802D01*
X024358Y009492D01*
X024477Y009205D01*
X024697Y008986D01*
X024983Y008867D01*
X025293Y008867D01*
X025580Y008986D01*
X025800Y009205D01*
X025918Y009492D01*
X025918Y009802D01*
X025800Y010089D01*
X025580Y010309D01*
X025293Y010427D01*
X024983Y010427D01*
X024697Y010309D01*
X024625Y010237D02*
X023325Y010237D01*
X023424Y010139D02*
X024526Y010139D01*
X024457Y010040D02*
X023493Y010040D01*
X023534Y009942D02*
X024416Y009942D01*
X024375Y009843D02*
X023575Y009843D01*
X023592Y009745D02*
X024358Y009745D01*
X024358Y009646D02*
X023592Y009646D01*
X023592Y009548D02*
X024358Y009548D01*
X024376Y009449D02*
X023574Y009449D01*
X023533Y009351D02*
X024417Y009351D01*
X024458Y009252D02*
X023492Y009252D01*
X023421Y009154D02*
X024529Y009154D01*
X024628Y009055D02*
X023322Y009055D01*
X023182Y008957D02*
X024768Y008957D01*
X025509Y008957D02*
X029941Y008957D01*
X029801Y009055D02*
X025649Y009055D01*
X025748Y009154D02*
X029702Y009154D01*
X029631Y009252D02*
X025819Y009252D01*
X025860Y009351D02*
X029590Y009351D01*
X029550Y009449D02*
X025900Y009449D01*
X025918Y009548D02*
X029532Y009548D01*
X029532Y009646D02*
X025918Y009646D01*
X025918Y009745D02*
X029532Y009745D01*
X029548Y009843D02*
X025902Y009843D01*
X025861Y009942D02*
X026823Y009942D01*
X026724Y010040D02*
X025820Y010040D01*
X025750Y010139D02*
X026626Y010139D01*
X026527Y010237D02*
X025652Y010237D01*
X025515Y010336D02*
X026094Y010336D01*
X028006Y011616D02*
X029465Y011616D01*
X029465Y011518D02*
X028104Y011518D01*
X028203Y011419D02*
X029465Y011419D01*
X029465Y011321D02*
X028301Y011321D01*
X028329Y011222D02*
X029465Y011222D01*
X029465Y011124D02*
X029328Y011124D01*
X029452Y011025D02*
X029465Y011025D01*
X029151Y011025D02*
X029055Y011025D01*
X029055Y010927D02*
X029151Y010927D01*
X029151Y010828D02*
X029055Y010828D01*
X029055Y010730D02*
X028566Y010730D01*
X028555Y010828D02*
X028649Y010828D01*
X028687Y010927D02*
X028514Y010927D01*
X028440Y011025D02*
X028754Y011025D01*
X028878Y011124D02*
X028329Y011124D01*
X028566Y010631D02*
X028643Y010631D01*
X028672Y010533D02*
X028527Y010533D01*
X028470Y010434D02*
X028730Y010434D01*
X029563Y009942D02*
X029589Y009942D01*
X029885Y010336D02*
X029935Y010336D01*
X029885Y010434D02*
X032590Y010434D01*
X032590Y010336D02*
X030688Y010336D01*
X030825Y010237D02*
X032590Y010237D01*
X032590Y010139D02*
X030924Y010139D01*
X030993Y010040D02*
X032590Y010040D01*
X032590Y009942D02*
X031034Y009942D01*
X031075Y009843D02*
X032590Y009843D01*
X032590Y009745D02*
X031092Y009745D01*
X031092Y009646D02*
X032590Y009646D01*
X032590Y009548D02*
X031092Y009548D01*
X031074Y009449D02*
X032590Y009449D01*
X032590Y009351D02*
X031033Y009351D01*
X030992Y009252D02*
X032590Y009252D01*
X032590Y009154D02*
X030921Y009154D01*
X030822Y009055D02*
X032590Y009055D01*
X032590Y008957D02*
X030682Y008957D01*
X031261Y007795D02*
X031030Y007564D01*
X030905Y007263D01*
X030905Y006937D01*
X031030Y006636D01*
X031030Y006636D01*
X031261Y006405D01*
X031562Y006280D01*
X031688Y006280D01*
X031888Y006280D01*
X032189Y006405D01*
X032189Y006405D01*
X032420Y006636D01*
X032545Y006937D01*
X032545Y007263D01*
X032420Y007564D01*
X032420Y007564D01*
X032189Y007795D01*
X031888Y007920D01*
X031562Y007920D01*
X031261Y007795D01*
X031240Y007775D02*
X001710Y007775D01*
X001689Y007795D02*
X001689Y007795D01*
X001388Y007920D01*
X001062Y007920D01*
X000761Y007795D01*
X000761Y007795D01*
X000530Y007564D01*
X000405Y007263D01*
X000405Y006937D01*
X000530Y006636D01*
X000530Y006636D01*
X000761Y006405D01*
X001062Y006280D01*
X001262Y006280D01*
X001388Y006280D01*
X001388Y006280D01*
X001689Y006405D01*
X001689Y006405D01*
X001920Y006636D01*
X002045Y006937D01*
X002045Y007263D01*
X001920Y007564D01*
X001920Y007564D01*
X001689Y007795D01*
X001809Y007676D02*
X031141Y007676D01*
X031043Y007578D02*
X001907Y007578D01*
X001956Y007479D02*
X030994Y007479D01*
X031030Y007564D02*
X031030Y007564D01*
X031030Y007564D01*
X030954Y007381D02*
X001996Y007381D01*
X002037Y007282D02*
X030913Y007282D01*
X030905Y007184D02*
X002045Y007184D01*
X002045Y007085D02*
X030905Y007085D01*
X030905Y006987D02*
X002045Y006987D01*
X002025Y006888D02*
X030925Y006888D01*
X030966Y006790D02*
X001984Y006790D01*
X001943Y006691D02*
X031007Y006691D01*
X031073Y006593D02*
X001877Y006593D01*
X001920Y006636D02*
X001920Y006636D01*
X001920Y006636D01*
X001779Y006494D02*
X031171Y006494D01*
X031261Y006405D02*
X031261Y006405D01*
X031283Y006396D02*
X001667Y006396D01*
X001429Y006297D02*
X031521Y006297D01*
X031929Y006297D02*
X032015Y006297D01*
X032167Y006396D02*
X032196Y006396D01*
X032279Y006494D02*
X032327Y006494D01*
X032377Y006593D02*
X032403Y006593D01*
X032420Y006636D02*
X032420Y006636D01*
X032443Y006691D02*
X032480Y006691D01*
X032484Y006790D02*
X032518Y006790D01*
X032525Y006888D02*
X032553Y006888D01*
X032545Y006987D02*
X032582Y006987D01*
X032590Y007085D02*
X032545Y007085D01*
X032545Y007184D02*
X032590Y007184D01*
X032590Y007282D02*
X032537Y007282D01*
X032496Y007381D02*
X032590Y007381D01*
X032590Y007479D02*
X032456Y007479D01*
X032407Y007578D02*
X032590Y007578D01*
X032590Y007676D02*
X032309Y007676D01*
X032210Y007775D02*
X032590Y007775D01*
X032590Y007873D02*
X032002Y007873D01*
X032189Y007795D02*
X032189Y007795D01*
X032590Y007972D02*
X000360Y007972D01*
X000360Y008070D02*
X032590Y008070D01*
X032590Y008169D02*
X000360Y008169D01*
X000360Y008267D02*
X032590Y008267D01*
X031448Y007873D02*
X001502Y007873D01*
X000948Y007873D02*
X000360Y007873D01*
X000360Y007775D02*
X000740Y007775D01*
X000641Y007676D02*
X000360Y007676D01*
X000360Y007578D02*
X000543Y007578D01*
X000530Y007564D02*
X000530Y007564D01*
X000494Y007479D02*
X000360Y007479D01*
X000360Y007381D02*
X000454Y007381D01*
X000413Y007282D02*
X000360Y007282D01*
X000360Y007184D02*
X000405Y007184D01*
X000405Y007085D02*
X000360Y007085D01*
X000364Y006987D02*
X000405Y006987D01*
X000390Y006888D02*
X000425Y006888D01*
X000422Y006790D02*
X000466Y006790D01*
X000460Y006691D02*
X000507Y006691D01*
X000532Y006593D02*
X000573Y006593D01*
X000603Y006494D02*
X000671Y006494D01*
X000733Y006396D02*
X000783Y006396D01*
X000761Y006405D02*
X000761Y006405D01*
X000916Y006297D02*
X001021Y006297D01*
X000360Y008366D02*
X012663Y008366D01*
X012564Y008464D02*
X000360Y008464D01*
X000360Y008563D02*
X012466Y008563D01*
X012465Y008661D02*
X000360Y008661D01*
X000360Y008760D02*
X012465Y008760D01*
X012465Y008858D02*
X000360Y008858D01*
X003015Y010336D02*
X003043Y010336D01*
X003320Y010040D02*
X003338Y010040D01*
X010742Y010730D02*
X010900Y010730D01*
X010900Y010631D02*
X010841Y010631D01*
X012235Y011721D02*
X012235Y011813D01*
X012218Y011813D01*
X012717Y011912D02*
X012733Y011912D01*
X012733Y012010D02*
X012717Y012010D01*
X012717Y012109D02*
X012733Y012109D01*
X012733Y012207D02*
X012717Y012207D01*
X012717Y012306D02*
X012733Y012306D01*
X012915Y012404D02*
X011888Y012404D01*
X013514Y010927D02*
X013687Y010927D01*
X013649Y010828D02*
X013555Y010828D01*
X013566Y010730D02*
X014055Y010730D01*
X014151Y010730D02*
X015774Y010730D01*
X015774Y010828D02*
X014557Y010828D01*
X014519Y010927D02*
X015850Y010927D01*
X015931Y011025D02*
X015069Y011025D01*
X015167Y011124D02*
X015931Y011124D01*
X015931Y011222D02*
X015266Y011222D01*
X015315Y011321D02*
X015931Y011321D01*
X015931Y011419D02*
X015315Y011419D01*
X015315Y011518D02*
X015626Y011518D01*
X015550Y011616D02*
X015315Y011616D01*
X015315Y011715D02*
X015520Y011715D01*
X015521Y011813D02*
X015315Y011813D01*
X015315Y011912D02*
X015562Y011912D01*
X015656Y012010D02*
X015315Y012010D01*
X015315Y012109D02*
X016391Y012109D01*
X016391Y012207D02*
X015315Y012207D01*
X015349Y012306D02*
X016391Y012306D01*
X016391Y012404D02*
X016348Y012404D01*
X016391Y012010D02*
X015994Y012010D01*
X016088Y011912D02*
X016391Y011912D01*
X016391Y011813D02*
X016176Y011813D01*
X016275Y011715D02*
X016391Y011715D01*
X016391Y011616D02*
X016311Y011616D01*
X016311Y011518D02*
X016411Y011518D01*
X016509Y011419D02*
X016311Y011419D01*
X016311Y011321D02*
X016608Y011321D01*
X016706Y011222D02*
X016311Y011222D01*
X016311Y011124D02*
X018667Y011124D01*
X018526Y011025D02*
X016311Y011025D01*
X016391Y010927D02*
X016559Y010927D01*
X016483Y010828D02*
X016467Y010828D01*
X016467Y010730D02*
X016483Y010730D01*
X016483Y010631D02*
X016467Y010631D01*
X016467Y010533D02*
X016483Y010533D01*
X016483Y010434D02*
X016467Y010434D01*
X016453Y010336D02*
X016497Y010336D01*
X015774Y010533D02*
X014534Y010533D01*
X014562Y010631D02*
X015774Y010631D01*
X017100Y010927D02*
X018451Y010927D01*
X018410Y010828D02*
X017176Y010828D01*
X018015Y010336D02*
X018143Y010336D01*
X018152Y010237D02*
X018241Y010237D01*
X018250Y010139D02*
X018340Y010139D01*
X018320Y010040D02*
X018438Y010040D01*
X018361Y009942D02*
X018537Y009942D01*
X019199Y010434D02*
X019480Y010434D01*
X019423Y010533D02*
X019255Y010533D01*
X019294Y010631D02*
X019384Y010631D01*
X019384Y010730D02*
X019294Y010730D01*
X019284Y010828D02*
X019395Y010828D01*
X019436Y010927D02*
X019243Y010927D01*
X019168Y011025D02*
X019510Y011025D01*
X019605Y011124D02*
X019027Y011124D01*
X018400Y010730D02*
X018342Y010730D01*
X018796Y011912D02*
X019642Y011912D01*
X019642Y012010D02*
X018796Y012010D01*
X018796Y012207D02*
X019642Y012207D01*
X019642Y012109D02*
X018478Y012109D01*
X018478Y012207D02*
X018381Y012207D01*
X018381Y012306D02*
X018478Y012306D01*
X018478Y012404D02*
X018381Y012404D01*
X018381Y012503D02*
X018478Y012503D01*
X018478Y012453D02*
X018666Y012453D01*
X018704Y012463D01*
X018738Y012483D01*
X018766Y012511D01*
X018786Y012545D01*
X018796Y012583D01*
X018796Y012752D01*
X018478Y012752D01*
X018478Y012453D01*
X018478Y012601D02*
X018381Y012601D01*
X018381Y012700D02*
X018478Y012700D01*
X018478Y012798D02*
X019020Y012798D01*
X019020Y012700D02*
X018796Y012700D01*
X018796Y012601D02*
X019057Y012601D01*
X019141Y012503D02*
X018757Y012503D01*
X018751Y012404D02*
X020340Y012404D01*
X020233Y012306D02*
X020217Y012306D01*
X020217Y012207D02*
X020233Y012207D01*
X020233Y012109D02*
X020217Y012109D01*
X020217Y012010D02*
X020233Y012010D01*
X020217Y012503D02*
X020221Y012503D01*
X019642Y012306D02*
X018796Y012306D01*
X018796Y012897D02*
X019056Y012897D01*
X019139Y012995D02*
X018796Y012995D01*
X018101Y012503D02*
X018020Y012503D01*
X018014Y012404D02*
X018108Y012404D01*
X019509Y012503D02*
X019524Y012503D01*
X020946Y012897D02*
X021915Y012897D01*
X021915Y012995D02*
X020938Y012995D01*
X021008Y012404D02*
X021915Y012404D01*
X021915Y012306D02*
X021171Y012306D01*
X021231Y012207D02*
X021915Y012207D01*
X021915Y012109D02*
X021250Y012109D01*
X021238Y012010D02*
X021915Y012010D01*
X021915Y011912D02*
X021188Y011912D01*
X021049Y011813D02*
X021915Y011813D01*
X021549Y014473D02*
X027240Y014473D01*
X027240Y014571D02*
X021552Y014571D01*
X021552Y014670D02*
X027240Y014670D01*
X027240Y014768D02*
X021552Y014768D01*
X021552Y014867D02*
X027240Y014867D01*
X027240Y014965D02*
X021552Y014965D01*
X021504Y015064D02*
X027240Y015064D01*
X027240Y015162D02*
X021551Y015162D01*
X021572Y015261D02*
X027240Y015261D01*
X027240Y015359D02*
X021572Y015359D01*
X021572Y015503D02*
X021572Y015691D01*
X021562Y015729D01*
X021542Y015763D01*
X021514Y015791D01*
X021480Y015811D01*
X021442Y015821D01*
X021273Y015821D01*
X021273Y015503D01*
X021572Y015503D01*
X021572Y015556D02*
X027240Y015556D01*
X027240Y015458D02*
X021273Y015458D01*
X021273Y015556D02*
X021177Y015556D01*
X021177Y015655D02*
X021273Y015655D01*
X021273Y015753D02*
X021177Y015753D01*
X020915Y015852D02*
X026986Y015852D01*
X026970Y015950D02*
X020915Y015950D01*
X020915Y016049D02*
X026986Y016049D01*
X027041Y016147D02*
X020992Y016147D01*
X021030Y016246D02*
X027191Y016246D01*
X027359Y016246D02*
X029465Y016246D01*
X029465Y016344D02*
X021030Y016344D01*
X020996Y016443D02*
X029465Y016443D01*
X029437Y016541D02*
X020915Y016541D01*
X021548Y015753D02*
X027041Y015753D01*
X027191Y015655D02*
X021572Y015655D01*
X020535Y015162D02*
X020530Y015162D01*
X020535Y015064D02*
X020504Y015064D01*
X019946Y015064D02*
X019504Y015064D01*
X019551Y015162D02*
X019920Y015162D01*
X019898Y015261D02*
X019572Y015261D01*
X019572Y015359D02*
X019898Y015359D01*
X019898Y015458D02*
X019273Y015458D01*
X019273Y015503D02*
X019572Y015503D01*
X019572Y015691D01*
X019562Y015729D01*
X019542Y015763D01*
X019514Y015791D01*
X019480Y015811D01*
X019442Y015821D01*
X019273Y015821D01*
X019273Y015503D01*
X019273Y015556D02*
X019177Y015556D01*
X019177Y015458D02*
X017819Y015458D01*
X017397Y015359D02*
X016895Y015359D01*
X016567Y015261D02*
X017399Y015261D01*
X017399Y015162D02*
X016567Y015162D01*
X016567Y015064D02*
X017399Y015064D01*
X017059Y014965D02*
X016567Y014965D01*
X016567Y014867D02*
X016993Y014867D01*
X016970Y014768D02*
X016540Y014768D01*
X016442Y014670D02*
X016978Y014670D01*
X017023Y014571D02*
X016343Y014571D01*
X017148Y014473D02*
X014962Y014473D01*
X014837Y014473D02*
X014837Y014473D01*
X014837Y014482D02*
X014837Y014037D01*
X014618Y014037D01*
X014837Y014037D01*
X014837Y014037D01*
X014837Y014037D01*
X014837Y014482D01*
X014837Y014374D02*
X014837Y014374D01*
X014837Y014276D02*
X014837Y014276D01*
X014837Y014177D02*
X014837Y014177D01*
X014837Y014079D02*
X014837Y014079D01*
X014618Y014079D02*
X014576Y014079D01*
X014580Y014177D02*
X014618Y014177D01*
X014618Y014276D02*
X014553Y014276D01*
X014485Y014374D02*
X014624Y014374D01*
X014712Y014473D02*
X014485Y014473D01*
X014195Y014867D02*
X014176Y014867D01*
X014535Y013980D02*
X014618Y013980D01*
X014618Y013882D02*
X014424Y013882D01*
X013125Y015104D02*
X013121Y015100D01*
X015551Y016640D02*
X015907Y016640D01*
X015706Y016738D02*
X015551Y016738D01*
X015551Y016837D02*
X015642Y016837D01*
X015620Y016935D02*
X015551Y016935D01*
X015551Y017034D02*
X015629Y017034D01*
X015676Y017132D02*
X015490Y017132D01*
X015391Y017231D02*
X015805Y017231D01*
X015892Y017329D02*
X014176Y017329D01*
X014163Y016837D02*
X015131Y016837D01*
X015772Y017625D02*
X015869Y017625D01*
X015869Y017723D02*
X015772Y017723D01*
X015772Y017822D02*
X015869Y017822D01*
X015772Y017920D02*
X000360Y017920D01*
X013072Y017034D02*
X013169Y017034D01*
X013169Y016935D02*
X013072Y016935D01*
X013072Y016837D02*
X013169Y016837D01*
X013472Y016837D02*
X013496Y016837D01*
X015772Y018019D02*
X015869Y018019D01*
X015869Y018117D02*
X015772Y018117D01*
X015772Y018216D02*
X015869Y018216D01*
X016131Y018216D02*
X016248Y018216D01*
X017196Y019595D02*
X017305Y019595D01*
X017360Y019890D02*
X017638Y019890D01*
X017517Y019989D02*
X017412Y019989D01*
X017412Y020087D02*
X017438Y020087D01*
X017412Y020580D02*
X017424Y020580D01*
X017412Y020678D02*
X017484Y020678D01*
X017394Y020777D02*
X017582Y020777D01*
X019177Y015753D02*
X019273Y015753D01*
X019273Y015655D02*
X019177Y015655D01*
X019548Y015753D02*
X019926Y015753D01*
X019898Y015655D02*
X019572Y015655D01*
X019572Y015556D02*
X019898Y015556D01*
X019898Y014965D02*
X019552Y014965D01*
X019552Y014867D02*
X019898Y014867D01*
X019898Y014768D02*
X019552Y014768D01*
X019552Y014670D02*
X019898Y014670D01*
X019898Y014571D02*
X019552Y014571D01*
X019549Y014473D02*
X019901Y014473D01*
X020549Y014473D02*
X020901Y014473D01*
X027620Y014473D02*
X029465Y014473D01*
X029465Y014571D02*
X027620Y014571D01*
X027620Y014670D02*
X029465Y014670D01*
X029465Y014768D02*
X027620Y014768D01*
X027620Y014867D02*
X029465Y014867D01*
X029465Y014965D02*
X027620Y014965D01*
X027620Y015064D02*
X029465Y015064D01*
X029465Y015162D02*
X027620Y015162D01*
X027620Y015261D02*
X029465Y015261D01*
X029465Y015359D02*
X027620Y015359D01*
X027620Y015458D02*
X029465Y015458D01*
X029465Y015556D02*
X027620Y015556D01*
X027620Y015655D02*
X029465Y015655D01*
X029465Y015753D02*
X027620Y015753D01*
X027620Y015852D02*
X029465Y015852D01*
X029465Y015950D02*
X027580Y015950D01*
X027564Y016049D02*
X029465Y016049D01*
X029465Y016147D02*
X027509Y016147D01*
X029637Y016935D02*
X032590Y016935D01*
X032590Y016837D02*
X029735Y016837D01*
X029834Y016738D02*
X032590Y016738D01*
X032590Y016640D02*
X029885Y016640D01*
X029885Y016541D02*
X032590Y016541D01*
X032590Y016443D02*
X029885Y016443D01*
X029885Y016344D02*
X032590Y016344D01*
X032590Y016246D02*
X029885Y016246D01*
X029885Y016147D02*
X032590Y016147D01*
X032590Y016049D02*
X029885Y016049D01*
X029885Y015950D02*
X032590Y015950D01*
X032590Y015852D02*
X029885Y015852D01*
X029885Y015753D02*
X032590Y015753D01*
X032590Y015655D02*
X029885Y015655D01*
X029885Y015556D02*
X032590Y015556D01*
X032590Y015458D02*
X029885Y015458D01*
X029885Y015359D02*
X032590Y015359D01*
X032590Y015261D02*
X029885Y015261D01*
X029885Y015162D02*
X032590Y015162D01*
X032590Y015064D02*
X029885Y015064D01*
X029885Y014965D02*
X032590Y014965D01*
X032590Y014867D02*
X029885Y014867D01*
X029885Y014768D02*
X032590Y014768D01*
X032590Y014670D02*
X029885Y014670D01*
X029885Y014571D02*
X032590Y014571D01*
X032590Y014473D02*
X029885Y014473D01*
X029885Y014374D02*
X032590Y014374D01*
X032590Y014276D02*
X029885Y014276D01*
X029885Y014177D02*
X032590Y014177D01*
X032590Y014079D02*
X029885Y014079D01*
X029885Y013980D02*
X032590Y013980D01*
X032590Y013882D02*
X029885Y013882D01*
X029885Y013783D02*
X032590Y013783D01*
X032590Y013685D02*
X029885Y013685D01*
X029885Y013586D02*
X032590Y013586D01*
X032590Y013488D02*
X029885Y013488D01*
X029885Y013389D02*
X032590Y013389D01*
X032590Y013291D02*
X029885Y013291D01*
X029885Y013192D02*
X032590Y013192D01*
X032590Y013094D02*
X029885Y013094D01*
X029885Y012995D02*
X032590Y012995D01*
X032590Y012897D02*
X029885Y012897D01*
X029885Y012798D02*
X032590Y012798D01*
X032590Y012700D02*
X029885Y012700D01*
X029885Y012601D02*
X032590Y012601D01*
X032590Y012503D02*
X029885Y012503D01*
X029885Y012404D02*
X032590Y012404D01*
X032590Y012306D02*
X029885Y012306D01*
X029885Y012207D02*
X032590Y012207D01*
X032590Y012109D02*
X029885Y012109D01*
X029885Y012010D02*
X032590Y012010D01*
X032590Y011912D02*
X029885Y011912D01*
X029885Y011813D02*
X032590Y011813D01*
X032590Y011715D02*
X029885Y011715D01*
X029885Y011616D02*
X032590Y011616D01*
X032590Y011518D02*
X029885Y011518D01*
X029885Y011419D02*
X032590Y011419D01*
X032590Y011321D02*
X029885Y011321D01*
X029885Y011222D02*
X032590Y011222D01*
X032590Y011124D02*
X029885Y011124D01*
X029885Y011025D02*
X032590Y011025D01*
X032590Y010927D02*
X029885Y010927D01*
X029885Y010828D02*
X032590Y010828D01*
X032590Y010730D02*
X029885Y010730D01*
X029885Y010631D02*
X032590Y010631D01*
X032590Y010533D02*
X029885Y010533D01*
X029151Y011124D02*
X029055Y011124D01*
X028232Y011813D02*
X027809Y011813D01*
X027733Y011912D02*
X027717Y011912D01*
X027717Y012010D02*
X027733Y012010D01*
X027733Y012109D02*
X027717Y012109D01*
X027717Y012207D02*
X027733Y012207D01*
X027733Y012306D02*
X027717Y012306D01*
X027620Y012404D02*
X028662Y012404D01*
X028788Y012404D02*
X029465Y012404D01*
X029465Y012306D02*
X028951Y012306D01*
X029011Y012207D02*
X029465Y012207D01*
X029465Y012109D02*
X029030Y012109D01*
X029018Y012010D02*
X029465Y012010D01*
X029465Y011912D02*
X028968Y011912D01*
X029465Y012503D02*
X027620Y012503D01*
X027620Y012601D02*
X029465Y012601D01*
X029465Y012700D02*
X027620Y012700D01*
X027620Y012798D02*
X029465Y012798D01*
X029465Y012897D02*
X027620Y012897D01*
X027620Y012995D02*
X029465Y012995D01*
X029465Y013094D02*
X027620Y013094D01*
X027620Y013192D02*
X029465Y013192D01*
X029465Y013291D02*
X027620Y013291D01*
X027620Y013389D02*
X029465Y013389D01*
X029465Y013488D02*
X027620Y013488D01*
X027620Y013586D02*
X029465Y013586D01*
X029465Y013685D02*
X027620Y013685D01*
X027620Y013783D02*
X029465Y013783D01*
X029465Y013882D02*
X027620Y013882D01*
X027620Y013980D02*
X029465Y013980D01*
X029465Y014079D02*
X027620Y014079D01*
X027620Y014177D02*
X029465Y014177D01*
X029465Y014276D02*
X027620Y014276D01*
X027620Y014374D02*
X029465Y014374D01*
X032172Y019398D02*
X032590Y019398D01*
X032590Y019496D02*
X032281Y019496D01*
X032379Y019595D02*
X032590Y019595D01*
X032590Y019693D02*
X032444Y019693D01*
X032485Y019792D02*
X032590Y019792D01*
X032590Y019890D02*
X032526Y019890D01*
X032545Y019989D02*
X032590Y019989D01*
X032590Y020087D02*
X032545Y020087D01*
X032545Y020186D02*
X032588Y020186D01*
X032569Y020284D02*
X032536Y020284D01*
X032537Y020383D02*
X032496Y020383D01*
X032505Y020481D02*
X032455Y020481D01*
X032439Y020580D02*
X032405Y020580D01*
X032367Y020678D02*
X032307Y020678D01*
X032256Y020777D02*
X032208Y020777D01*
X014151Y010631D02*
X014055Y010631D01*
X014055Y010533D02*
X014151Y010533D01*
X014151Y010434D02*
X014055Y010434D01*
X014055Y010336D02*
X014151Y010336D01*
X013830Y010336D02*
X013372Y010336D01*
X013470Y010434D02*
X013730Y010434D01*
X013672Y010533D02*
X013527Y010533D01*
X013566Y010631D02*
X013643Y010631D01*
D24*
X013119Y010714D02*
X013119Y011094D01*
X013225Y011200D01*
X014975Y011200D01*
X015125Y011350D01*
X015125Y012350D01*
X015275Y012500D01*
X016175Y012500D01*
X016349Y012674D01*
X016349Y014037D01*
X016097Y014037D02*
X016097Y012972D01*
X015875Y012750D01*
X015175Y012750D01*
X014875Y012450D01*
X014875Y011550D01*
X014775Y011450D01*
X012525Y011450D01*
X012325Y011250D01*
X012325Y010721D01*
X012331Y010714D01*
X012525Y011700D02*
X012425Y011800D01*
X012425Y012095D01*
X012430Y012100D01*
X012525Y011700D02*
X013225Y011700D01*
X013325Y011800D01*
X013325Y012000D01*
X013425Y012100D01*
X014225Y012100D01*
X015675Y013000D02*
X006825Y013000D01*
X006625Y012800D01*
X006625Y011350D01*
X006425Y011150D01*
X005775Y011150D01*
X005619Y010994D01*
X005619Y010714D01*
X004831Y010714D02*
X004831Y011256D01*
X004925Y011350D01*
X006275Y011350D01*
X006375Y011450D01*
X006375Y012850D01*
X006725Y013200D01*
X015475Y013200D01*
X015593Y013318D01*
X015593Y014037D01*
X015341Y014037D02*
X015341Y013466D01*
X015275Y013400D01*
X003425Y013400D01*
X003325Y013500D01*
X003325Y015100D01*
X007125Y015100D02*
X007125Y013750D01*
X007275Y013600D01*
X015025Y013600D01*
X015089Y013664D01*
X015089Y014037D01*
X015845Y014037D02*
X015845Y013170D01*
X015675Y013000D01*
X015825Y011750D02*
X015971Y011750D01*
X016121Y011600D01*
X016121Y010600D01*
X020725Y014946D02*
X020925Y014746D01*
X020725Y014946D02*
X020725Y016300D01*
X018113Y016163D02*
X018113Y016738D01*
X018051Y016800D01*
X017775Y016800D01*
X017675Y016900D01*
X017675Y018450D01*
X017575Y018550D01*
X016875Y018550D01*
X016731Y018694D01*
X016731Y019307D01*
X016475Y019307D02*
X016475Y018500D01*
X016625Y018350D01*
X017325Y018350D01*
X017425Y018250D01*
X017425Y016750D01*
X017575Y016600D01*
X017825Y016600D01*
X017861Y016564D01*
X017861Y016163D01*
X017357Y016163D02*
X017357Y016518D01*
X017225Y016650D01*
X017225Y017750D01*
X017075Y017900D01*
X016097Y016778D02*
X015925Y016950D01*
X016097Y016778D02*
X016097Y016163D01*
X015845Y016163D02*
X015845Y015170D01*
X015775Y015100D01*
X013829Y015100D01*
X013125Y015104D02*
X013125Y015800D01*
X013275Y015950D01*
X014325Y015950D01*
X015341Y016163D02*
X015341Y015634D01*
X015375Y015600D01*
X016601Y015704D02*
X016705Y015600D01*
X017035Y015600D01*
X017105Y015670D01*
X017105Y016163D01*
X016601Y016163D02*
X016601Y015704D01*
X017035Y015600D02*
X017425Y015600D01*
X017575Y015450D01*
X017609Y015450D01*
X027275Y015950D02*
X027430Y015795D01*
X027430Y012100D01*
D25*
X028020Y012100D02*
X028725Y012100D01*
X028119Y011206D02*
X027825Y011500D01*
X022635Y011500D01*
X022405Y011730D01*
X022405Y013300D01*
X022155Y013550D01*
X017475Y013550D01*
X017357Y013668D01*
X017357Y014037D01*
X017609Y014037D02*
X017609Y014416D01*
X017275Y014750D01*
X017609Y014866D02*
X017861Y014614D01*
X017861Y014037D01*
X018113Y014037D02*
X018113Y014538D01*
X018321Y014746D01*
X019225Y014746D01*
X020225Y014746D02*
X020925Y014746D01*
X021225Y014746D01*
X020225Y015454D02*
X020225Y016700D01*
X020125Y016800D01*
X029475Y016800D01*
X029675Y016600D01*
X029675Y010350D01*
X029475Y010150D01*
X026911Y010150D01*
X026347Y010714D01*
X027175Y011230D02*
X022325Y011230D01*
X022125Y011430D01*
X022125Y013100D01*
X021975Y013250D01*
X017225Y013250D01*
X017105Y013370D01*
X017105Y014037D01*
X016853Y014037D02*
X016853Y011872D01*
X017075Y011650D01*
X019775Y011650D01*
X020275Y011150D01*
X020475Y011150D01*
X020619Y011006D01*
X020619Y010714D01*
X020925Y011150D02*
X021125Y010950D01*
X021125Y010350D01*
X020925Y010150D01*
X018625Y010150D01*
X018175Y010600D01*
X016829Y010600D01*
X016825Y010596D01*
X016825Y008750D01*
X016575Y008500D01*
X012825Y008500D01*
X012675Y008650D01*
X012675Y010000D01*
X012475Y010200D01*
X010975Y010200D01*
X010575Y010600D01*
X007325Y010600D01*
X006925Y010200D01*
X003475Y010200D01*
X003175Y010500D01*
X003175Y011500D01*
X003375Y011700D01*
X005425Y011700D01*
X005525Y011800D01*
X005525Y012095D01*
X005520Y012100D01*
X004930Y012100D02*
X004475Y012100D01*
X011825Y012100D02*
X012430Y012100D01*
X013020Y012100D02*
X013125Y012205D01*
X013125Y012650D01*
X014275Y014150D02*
X014275Y014650D01*
X014375Y014750D01*
X016225Y014750D01*
X016357Y014882D01*
X016357Y016163D01*
X016357Y017173D01*
X016180Y017350D01*
X016770Y017350D02*
X016770Y017691D01*
X016529Y017900D01*
X015341Y016984D02*
X015225Y017100D01*
X013829Y017100D01*
X014825Y016151D02*
X014837Y016163D01*
X014825Y016151D02*
X014825Y015500D01*
X015341Y016163D02*
X015341Y016984D01*
X016853Y016778D02*
X016853Y016163D01*
X017609Y016163D02*
X017609Y015450D01*
X017609Y014866D01*
X016601Y014037D02*
X016601Y011624D01*
X016825Y011400D01*
X019625Y011400D01*
X019831Y011194D01*
X019831Y010714D01*
X020925Y011150D02*
X020925Y011600D01*
X020775Y011750D01*
X020075Y011750D01*
X019930Y011895D01*
X019930Y012100D01*
X020520Y012100D02*
X020945Y012100D01*
X019871Y012750D02*
X019325Y012750D01*
X017721Y012800D02*
X017721Y012100D01*
X017721Y012800D02*
X017275Y012800D01*
X017225Y012850D01*
X013125Y014600D02*
X013121Y014604D01*
X013121Y015100D01*
X016853Y016778D02*
X016875Y016800D01*
X018121Y017054D02*
X018121Y017300D01*
X018121Y018100D01*
X018121Y018654D01*
X017975Y018800D01*
X017125Y018800D01*
X016987Y018938D01*
X016987Y019307D01*
X018121Y017054D02*
X018375Y016800D01*
X018475Y016800D01*
X020125Y016800D01*
X027175Y011230D02*
X027331Y011074D01*
X027331Y010714D01*
X028119Y010714D02*
X028119Y011206D01*
D26*
X028725Y012100D03*
X027275Y015950D03*
X020945Y012100D03*
X019325Y012750D03*
X017225Y012850D03*
X015825Y011750D03*
X014225Y012100D03*
X013125Y012650D03*
X011825Y012100D03*
X014275Y014150D03*
X013125Y014600D03*
X014825Y015500D03*
X015375Y015600D03*
X014325Y015950D03*
X015925Y016950D03*
X016875Y016800D03*
X017075Y017900D03*
X018475Y016800D03*
X016705Y015600D03*
X017275Y014750D03*
X020725Y016300D03*
X004475Y012100D03*
M02*
