%
M48
M72
T01C0.0150
T02C0.0236
T03C0.0394
T04C0.0433
T05C0.0900
T06C0.1300
%
T01
X15825Y11750
X14225Y12100
X13125Y12650
X11825Y12100
X14275Y14150
X13125Y14600
X14825Y15500
X15375Y15600
X14325Y15950
X15925Y16950
X16875Y16800
X17075Y17900
X18475Y16800
X16705Y15600
X17275Y14750
X17225Y12850
X19325Y12750
X20945Y12100
X20725Y16300
X27275Y15950
X28725Y12100
X4475Y12100
T02
X15520Y19248
X17430Y19248
T03
X18847Y10714
X19831Y10714
X20619Y10714
X21603Y10714
X26347Y10714
X27331Y10714
X28119Y10714
X29103Y10714
X14103Y10714
X13119Y10714
X12331Y10714
X11347Y10714
X6603Y10714
X5619Y10714
X4831Y10714
X3847Y10714
T04
X15054Y20350
X17896Y20350
T05
X17638Y9647
X15312Y9647
X10138Y9647
X7812Y9647
X2638Y9647
X22812Y9647
X25138Y9647
X30312Y9647
T06
X1225Y7100
X1225Y20100
X31725Y20100
X31725Y7100
M30
