G75*
%MOIN*%
%OFA0B0*%
%FSLAX24Y24*%
%IPPOS*%
%LPD*%
%AMOC8*
5,1,8,0,0,1.08239X$1,22.5*
%
%ADD10R,0.0218X0.0671*%
%ADD11R,0.0513X0.0474*%
%ADD12R,0.0474X0.0513*%
%ADD13R,0.2180X0.0840*%
%ADD14C,0.0714*%
%ADD15C,0.1380*%
%ADD16R,0.0237X0.0631*%
%ADD17R,0.0789X0.0789*%
%ADD18C,0.0556*%
%ADD19C,0.0867*%
%ADD20R,0.0395X0.0395*%
D10*
X014837Y014037D03*
X015089Y014037D03*
X015341Y014037D03*
X015593Y014037D03*
X015845Y014037D03*
X016097Y014037D03*
X016349Y014037D03*
X016601Y014037D03*
X016853Y014037D03*
X017105Y014037D03*
X017357Y014037D03*
X017609Y014037D03*
X017861Y014037D03*
X018113Y014037D03*
X018113Y016163D03*
X017861Y016163D03*
X017609Y016163D03*
X017357Y016163D03*
X017105Y016163D03*
X016853Y016163D03*
X016601Y016163D03*
X016357Y016163D03*
X016097Y016163D03*
X015845Y016163D03*
X015593Y016163D03*
X015341Y016163D03*
X015089Y016163D03*
X014837Y016163D03*
D11*
X013829Y017100D03*
X013121Y017100D03*
X015821Y017900D03*
X016529Y017900D03*
X018121Y018100D03*
X018829Y018100D03*
X018829Y017300D03*
X018121Y017300D03*
X013829Y015100D03*
X013121Y015100D03*
X017721Y012800D03*
X018429Y012800D03*
X018429Y012100D03*
X017721Y012100D03*
X016829Y010600D03*
X016121Y010600D03*
X019871Y012750D03*
X020579Y012750D03*
D12*
X020225Y014746D03*
X020225Y015454D03*
X019225Y015454D03*
X019225Y014746D03*
X021225Y014746D03*
X021225Y015454D03*
D13*
X007125Y015100D03*
X003325Y015100D03*
D14*
X003847Y010714D03*
X004831Y010714D03*
X005619Y010714D03*
X006603Y010714D03*
X011347Y010714D03*
X012331Y010714D03*
X013119Y010714D03*
X014103Y010714D03*
X018847Y010714D03*
X019831Y010714D03*
X020619Y010714D03*
X021603Y010714D03*
X026347Y010714D03*
X027331Y010714D03*
X028119Y010714D03*
X029103Y010714D03*
D15*
X001225Y007100D03*
X002638Y009647D03*
X007812Y009647D03*
X010138Y009647D03*
X015312Y009647D03*
X017638Y009647D03*
X022812Y009647D03*
X025138Y009647D03*
X030312Y009647D03*
X031725Y007100D03*
X031725Y020100D03*
X001225Y020100D03*
D16*
X015963Y019307D03*
X016219Y019307D03*
X016475Y019307D03*
X016731Y019307D03*
X016987Y019307D03*
D17*
X016928Y020350D03*
X016022Y020350D03*
D18*
X015520Y019248D03*
X017430Y019248D03*
D19*
X017896Y020350D03*
X015054Y020350D03*
D20*
X016180Y017350D03*
X016770Y017350D03*
X019930Y012100D03*
X020520Y012100D03*
X027430Y012100D03*
X028020Y012100D03*
X013020Y012100D03*
X012430Y012100D03*
X005520Y012100D03*
X004930Y012100D03*
M02*
