G75*
%MOIN*%
%OFA0B0*%
%FSLAX24Y24*%
%IPPOS*%
%LPD*%
%AMOC8*
5,1,8,0,0,1.08239X$1,22.5*
%
%ADD10C,0.0634*%
%ADD11C,0.1300*%
%ADD12C,0.0476*%
%ADD13C,0.0787*%
%ADD14C,0.0100*%
%ADD15C,0.0350*%
%ADD16C,0.0160*%
%ADD17C,0.0120*%
D10*
X003847Y010714D03*
X004831Y010714D03*
X005619Y010714D03*
X006603Y010714D03*
X011347Y010714D03*
X012331Y010714D03*
X013119Y010714D03*
X014103Y010714D03*
X018847Y010714D03*
X019831Y010714D03*
X020619Y010714D03*
X021603Y010714D03*
X026347Y010714D03*
X027331Y010714D03*
X028119Y010714D03*
X029103Y010714D03*
D11*
X030312Y009647D03*
X025138Y009647D03*
X022812Y009647D03*
X017638Y009647D03*
X015312Y009647D03*
X010138Y009647D03*
X007812Y009647D03*
X002638Y009647D03*
D12*
X015520Y019248D03*
X017430Y019248D03*
D13*
X017896Y020350D03*
X015054Y020350D03*
D14*
X001089Y006241D02*
X000830Y006325D01*
X000610Y006485D01*
X000450Y006705D01*
X000366Y006964D01*
X000359Y007044D01*
X000360Y007044D01*
X000360Y020156D01*
X000359Y020156D01*
X000366Y020236D01*
X000450Y020495D01*
X000610Y020715D01*
X000830Y020875D01*
X000953Y020875D01*
X001062Y020920D02*
X000761Y020795D01*
X000761Y020795D01*
X000530Y020564D01*
X000405Y020263D01*
X000405Y019937D01*
X000530Y019636D01*
X000530Y019636D01*
X000761Y019405D01*
X001062Y019280D01*
X001262Y019280D01*
X001388Y019280D01*
X001388Y019280D01*
X001689Y019405D01*
X001689Y019405D01*
X001920Y019636D01*
X002045Y019937D01*
X002045Y020263D01*
X001920Y020564D01*
X001920Y020564D01*
X001689Y020795D01*
X001388Y020920D01*
X001062Y020920D01*
X001089Y020959D02*
X001169Y020966D01*
X001169Y020965D01*
X031781Y020965D01*
X031781Y020966D01*
X031861Y020959D01*
X032120Y020875D01*
X031997Y020875D01*
X031888Y020920D02*
X032189Y020795D01*
X032189Y020795D01*
X032420Y020564D01*
X032420Y020564D01*
X032545Y020263D01*
X032545Y019937D01*
X032420Y019636D01*
X032420Y019636D01*
X032189Y019405D01*
X032189Y019405D01*
X031888Y019280D01*
X031762Y019280D01*
X031562Y019280D01*
X031261Y019405D01*
X031261Y019405D01*
X031030Y019636D01*
X030905Y019937D01*
X030905Y020263D01*
X031030Y020564D01*
X031030Y020564D01*
X031261Y020795D01*
X031261Y020795D01*
X031562Y020920D01*
X031888Y020920D01*
X032120Y020875D02*
X032340Y020715D01*
X032500Y020495D01*
X032584Y020236D01*
X032591Y020156D01*
X032590Y020156D01*
X032590Y007057D01*
X032580Y006963D01*
X032485Y006698D01*
X032313Y006475D01*
X032080Y006316D01*
X031809Y006237D01*
X031723Y006233D01*
X031720Y006235D01*
X001169Y006235D01*
X001169Y006234D01*
X001089Y006241D01*
X001062Y006280D02*
X000761Y006405D01*
X000761Y006405D01*
X000530Y006636D01*
X000530Y006636D01*
X000405Y006937D01*
X000405Y007263D01*
X000530Y007564D01*
X000530Y007564D01*
X000761Y007795D01*
X000761Y007795D01*
X001062Y007920D01*
X001388Y007920D01*
X001689Y007795D01*
X001689Y007795D01*
X001920Y007564D01*
X002045Y007263D01*
X002045Y007263D01*
X002045Y006937D01*
X001920Y006636D01*
X001920Y006636D01*
X001689Y006405D01*
X001689Y006405D01*
X001388Y006280D01*
X001188Y006280D01*
X001062Y006280D01*
X001021Y006297D02*
X000916Y006297D01*
X000783Y006396D02*
X000733Y006396D01*
X000671Y006494D02*
X000603Y006494D01*
X000573Y006593D02*
X000532Y006593D01*
X000507Y006691D02*
X000460Y006691D01*
X000466Y006790D02*
X000422Y006790D01*
X000425Y006888D02*
X000390Y006888D01*
X000405Y006987D02*
X000364Y006987D01*
X000360Y007085D02*
X000405Y007085D01*
X000405Y007184D02*
X000360Y007184D01*
X000360Y007282D02*
X000413Y007282D01*
X000454Y007381D02*
X000360Y007381D01*
X000360Y007479D02*
X000494Y007479D01*
X000543Y007578D02*
X000360Y007578D01*
X000360Y007676D02*
X000641Y007676D01*
X000740Y007775D02*
X000360Y007775D01*
X000360Y007873D02*
X000948Y007873D01*
X000360Y007972D02*
X032590Y007972D01*
X032590Y008070D02*
X000360Y008070D01*
X000360Y008169D02*
X032590Y008169D01*
X032590Y008267D02*
X000360Y008267D01*
X000360Y008366D02*
X032590Y008366D01*
X032590Y008464D02*
X000360Y008464D01*
X000360Y008563D02*
X032590Y008563D01*
X032590Y008661D02*
X000360Y008661D01*
X000360Y008760D02*
X032590Y008760D01*
X032590Y008858D02*
X000360Y008858D01*
X000360Y008957D02*
X002268Y008957D01*
X002197Y008986D02*
X002483Y008867D01*
X002793Y008867D01*
X003080Y008986D01*
X003300Y009205D01*
X003418Y009492D01*
X003418Y009802D01*
X003300Y010089D01*
X003080Y010309D01*
X002793Y010427D01*
X002483Y010427D01*
X002197Y010309D01*
X001977Y010089D01*
X001858Y009802D01*
X001858Y009492D01*
X001977Y009205D01*
X002197Y008986D01*
X002128Y009055D02*
X000360Y009055D01*
X000360Y009154D02*
X002029Y009154D01*
X001958Y009252D02*
X000360Y009252D01*
X000360Y009351D02*
X001917Y009351D01*
X001876Y009449D02*
X000360Y009449D01*
X000360Y009548D02*
X001858Y009548D01*
X001858Y009646D02*
X000360Y009646D01*
X000360Y009745D02*
X001858Y009745D01*
X001875Y009843D02*
X000360Y009843D01*
X000360Y009942D02*
X001916Y009942D01*
X001957Y010040D02*
X000360Y010040D01*
X000360Y010139D02*
X002026Y010139D01*
X002125Y010237D02*
X000360Y010237D01*
X000360Y010336D02*
X002262Y010336D01*
X003015Y010336D02*
X003594Y010336D01*
X003594Y010335D02*
X003677Y010301D01*
X003865Y010113D01*
X003988Y009990D01*
X007012Y009990D01*
X007412Y010390D01*
X007566Y010390D01*
X007370Y010309D01*
X007150Y010089D01*
X007032Y009802D01*
X007032Y009492D01*
X007150Y009205D01*
X007370Y008986D01*
X007657Y008867D01*
X007967Y008867D01*
X008253Y008986D01*
X008473Y009205D01*
X008592Y009492D01*
X008592Y009802D01*
X008473Y010089D01*
X008253Y010309D01*
X008057Y010390D01*
X009893Y010390D01*
X009697Y010309D01*
X009477Y010089D01*
X009358Y009802D01*
X009358Y009492D01*
X009477Y009205D01*
X009697Y008986D01*
X009983Y008867D01*
X010293Y008867D01*
X010580Y008986D01*
X010800Y009205D01*
X010918Y009492D01*
X010918Y009802D01*
X010800Y010089D01*
X010580Y010309D01*
X010384Y010390D01*
X011039Y010390D01*
X011094Y010335D01*
X011258Y010267D01*
X011436Y010267D01*
X011487Y010289D01*
X011550Y010228D01*
X011665Y010113D01*
X011788Y009990D01*
X014609Y009990D01*
X014532Y009802D01*
X014532Y009492D01*
X014650Y009205D01*
X014870Y008986D01*
X015157Y008867D01*
X015467Y008867D01*
X015753Y008986D01*
X015973Y009205D01*
X016092Y009492D01*
X016092Y009802D01*
X015973Y010089D01*
X015753Y010309D01*
X015557Y010390D01*
X017393Y010390D01*
X017197Y010309D01*
X016977Y010089D01*
X016858Y009802D01*
X016858Y009492D01*
X016977Y009205D01*
X017197Y008986D01*
X017483Y008867D01*
X017793Y008867D01*
X018080Y008986D01*
X018300Y009205D01*
X018418Y009492D01*
X018418Y009802D01*
X018300Y010089D01*
X018080Y010309D01*
X017884Y010390D01*
X018539Y010390D01*
X018594Y010335D01*
X018758Y010267D01*
X018936Y010267D01*
X018989Y010289D01*
X019165Y010113D01*
X019288Y009990D01*
X022062Y009990D01*
X022143Y010071D01*
X022032Y009802D01*
X022032Y009492D01*
X022150Y009205D01*
X022370Y008986D01*
X022657Y008867D01*
X022967Y008867D01*
X023253Y008986D01*
X023473Y009205D01*
X023592Y009492D01*
X023592Y009802D01*
X023473Y010089D01*
X023253Y010309D01*
X023178Y010340D01*
X024772Y010340D01*
X024697Y010309D01*
X024477Y010089D01*
X024358Y009802D01*
X024358Y009492D01*
X024477Y009205D01*
X024697Y008986D01*
X024983Y008867D01*
X025293Y008867D01*
X025580Y008986D01*
X025800Y009205D01*
X025918Y009492D01*
X025918Y009802D01*
X025800Y010089D01*
X025580Y010309D01*
X025504Y010340D01*
X026089Y010340D01*
X026094Y010335D01*
X026258Y010267D01*
X026436Y010267D01*
X026600Y010335D01*
X026726Y010461D01*
X026794Y010625D01*
X026794Y010803D01*
X026726Y010967D01*
X026600Y011093D01*
X026436Y011161D01*
X026258Y011161D01*
X026094Y011093D01*
X025968Y010967D01*
X025900Y010803D01*
X025900Y010760D01*
X022238Y010760D01*
X022115Y010637D01*
X022047Y010569D01*
X022058Y010605D01*
X022068Y010666D01*
X021651Y010666D01*
X021651Y010763D01*
X021555Y010763D01*
X021555Y011179D01*
X021494Y011170D01*
X021424Y011147D01*
X021358Y011113D01*
X021299Y011070D01*
X021247Y011018D01*
X021204Y010959D01*
X021170Y010893D01*
X021148Y010824D01*
X021138Y010763D01*
X021555Y010763D01*
X021555Y010666D01*
X021138Y010666D01*
X021148Y010605D01*
X021170Y010535D01*
X021204Y010470D01*
X021247Y010410D01*
X020946Y010410D01*
X020998Y010461D01*
X021066Y010625D01*
X021066Y010803D01*
X020998Y010967D01*
X020872Y011093D01*
X020708Y011161D01*
X020530Y011161D01*
X020366Y011093D01*
X020240Y010967D01*
X020225Y010931D01*
X020210Y010967D01*
X020084Y011093D01*
X019920Y011161D01*
X019742Y011161D01*
X019578Y011093D01*
X019452Y010967D01*
X019384Y010803D01*
X019384Y010625D01*
X019452Y010461D01*
X019504Y010410D01*
X019462Y010410D01*
X019280Y010592D01*
X019294Y010625D01*
X019294Y010803D01*
X019226Y010967D01*
X019100Y011093D01*
X018936Y011161D01*
X018758Y011161D01*
X018594Y011093D01*
X018468Y010967D01*
X018403Y010810D01*
X014838Y010810D01*
X014715Y010687D01*
X014507Y010479D01*
X014536Y010535D01*
X014558Y010605D01*
X014568Y010666D01*
X014151Y010666D01*
X014151Y010763D01*
X014055Y010763D01*
X014055Y011179D01*
X013994Y011170D01*
X013924Y011147D01*
X013858Y011113D01*
X013799Y011070D01*
X013747Y011018D01*
X013704Y010959D01*
X013670Y010893D01*
X013648Y010824D01*
X013638Y010763D01*
X014055Y010763D01*
X014055Y010666D01*
X013638Y010666D01*
X013648Y010605D01*
X013670Y010535D01*
X013704Y010470D01*
X013747Y010410D01*
X013446Y010410D01*
X013498Y010461D01*
X013566Y010625D01*
X013566Y010803D01*
X013498Y010967D01*
X013372Y011093D01*
X013208Y011161D01*
X013030Y011161D01*
X012866Y011093D01*
X012740Y010967D01*
X012725Y010931D01*
X012710Y010967D01*
X012584Y011093D01*
X012420Y011161D01*
X012242Y011161D01*
X012078Y011093D01*
X011952Y010967D01*
X011884Y010803D01*
X011884Y010625D01*
X011952Y010461D01*
X012004Y010410D01*
X011962Y010410D01*
X011905Y010467D01*
X011905Y010469D01*
X011844Y010528D01*
X011784Y010588D01*
X011782Y010588D01*
X011779Y010590D01*
X011794Y010625D01*
X011794Y010803D01*
X011726Y010967D01*
X011600Y011093D01*
X011436Y011161D01*
X011258Y011161D01*
X011094Y011093D01*
X010968Y010967D01*
X010903Y010810D01*
X007238Y010810D01*
X007115Y010687D01*
X007063Y010635D01*
X007068Y010666D01*
X006651Y010666D01*
X006651Y010763D01*
X006555Y010763D01*
X006555Y011179D01*
X006494Y011170D01*
X006424Y011147D01*
X006358Y011113D01*
X006299Y011070D01*
X006247Y011018D01*
X006204Y010959D01*
X006170Y010893D01*
X006148Y010824D01*
X006138Y010763D01*
X006555Y010763D01*
X006555Y010666D01*
X006138Y010666D01*
X006148Y010605D01*
X006170Y010535D01*
X006204Y010470D01*
X006247Y010410D01*
X005946Y010410D01*
X005998Y010461D01*
X006066Y010625D01*
X006066Y010803D01*
X005998Y010967D01*
X005872Y011093D01*
X005708Y011161D01*
X005530Y011161D01*
X005366Y011093D01*
X005240Y010967D01*
X005225Y010931D01*
X005210Y010967D01*
X005084Y011093D01*
X004920Y011161D01*
X004742Y011161D01*
X004578Y011093D01*
X004452Y010967D01*
X004384Y010803D01*
X004384Y010625D01*
X004452Y010461D01*
X004504Y010410D01*
X004175Y010410D01*
X004226Y010461D01*
X004294Y010625D01*
X004294Y010803D01*
X004226Y010967D01*
X004100Y011093D01*
X003936Y011161D01*
X003758Y011161D01*
X003594Y011093D01*
X003468Y010967D01*
X003400Y010803D01*
X003400Y010625D01*
X003468Y010461D01*
X003594Y010335D01*
X003495Y010434D02*
X000360Y010434D01*
X000360Y010533D02*
X003439Y010533D01*
X003400Y010631D02*
X000360Y010631D01*
X000360Y010730D02*
X003400Y010730D01*
X003410Y010828D02*
X000360Y010828D01*
X000360Y010927D02*
X003451Y010927D01*
X003526Y011025D02*
X000360Y011025D01*
X000360Y011124D02*
X003667Y011124D01*
X004027Y011124D02*
X004652Y011124D01*
X004510Y011025D02*
X004168Y011025D01*
X004243Y010927D02*
X004436Y010927D01*
X004395Y010828D02*
X004284Y010828D01*
X004294Y010730D02*
X004384Y010730D01*
X004384Y010631D02*
X004294Y010631D01*
X004255Y010533D02*
X004423Y010533D01*
X004480Y010434D02*
X004199Y010434D01*
X003741Y010237D02*
X003152Y010237D01*
X003250Y010139D02*
X003840Y010139D01*
X003938Y010040D02*
X003320Y010040D01*
X003361Y009942D02*
X007089Y009942D01*
X007062Y010040D02*
X007130Y010040D01*
X007160Y010139D02*
X007200Y010139D01*
X007259Y010237D02*
X007298Y010237D01*
X007357Y010336D02*
X007435Y010336D01*
X007158Y010730D02*
X006651Y010730D01*
X006651Y010763D02*
X007068Y010763D01*
X007058Y010824D01*
X007036Y010893D01*
X007002Y010959D01*
X006959Y011018D01*
X006907Y011070D01*
X006848Y011113D01*
X006782Y011147D01*
X006712Y011170D01*
X006651Y011179D01*
X006651Y010763D01*
X006651Y010828D02*
X006555Y010828D01*
X006555Y010730D02*
X006066Y010730D01*
X006055Y010828D02*
X006149Y010828D01*
X006187Y010927D02*
X006014Y010927D01*
X005940Y011025D02*
X006254Y011025D01*
X006378Y011124D02*
X005798Y011124D01*
X005439Y011124D02*
X005011Y011124D01*
X005152Y011025D02*
X005298Y011025D01*
X006066Y010631D02*
X006143Y010631D01*
X006172Y010533D02*
X006027Y010533D01*
X005970Y010434D02*
X006230Y010434D01*
X006247Y010410D02*
X006247Y010410D01*
X006555Y010927D02*
X006651Y010927D01*
X006651Y011025D02*
X006555Y011025D01*
X006555Y011124D02*
X006651Y011124D01*
X006828Y011124D02*
X011167Y011124D01*
X011026Y011025D02*
X006952Y011025D01*
X007019Y010927D02*
X010951Y010927D01*
X010910Y010828D02*
X007057Y010828D01*
X008188Y010336D02*
X009762Y010336D01*
X009625Y010237D02*
X008325Y010237D01*
X008424Y010139D02*
X009526Y010139D01*
X009457Y010040D02*
X008493Y010040D01*
X008534Y009942D02*
X009416Y009942D01*
X009375Y009843D02*
X008575Y009843D01*
X008592Y009745D02*
X009358Y009745D01*
X009358Y009646D02*
X008592Y009646D01*
X008592Y009548D02*
X009358Y009548D01*
X009376Y009449D02*
X008574Y009449D01*
X008533Y009351D02*
X009417Y009351D01*
X009458Y009252D02*
X008492Y009252D01*
X008421Y009154D02*
X009529Y009154D01*
X009628Y009055D02*
X008322Y009055D01*
X008182Y008957D02*
X009768Y008957D01*
X010509Y008957D02*
X014941Y008957D01*
X014801Y009055D02*
X010649Y009055D01*
X010748Y009154D02*
X014702Y009154D01*
X014631Y009252D02*
X010819Y009252D01*
X010860Y009351D02*
X014590Y009351D01*
X014550Y009449D02*
X010900Y009449D01*
X010918Y009548D02*
X014532Y009548D01*
X014532Y009646D02*
X010918Y009646D01*
X010918Y009745D02*
X014532Y009745D01*
X014548Y009843D02*
X010902Y009843D01*
X010861Y009942D02*
X014589Y009942D01*
X014561Y010533D02*
X014534Y010533D01*
X014562Y010631D02*
X014659Y010631D01*
X014758Y010730D02*
X014151Y010730D01*
X014151Y010763D02*
X014568Y010763D01*
X014558Y010824D01*
X014536Y010893D01*
X014502Y010959D01*
X014459Y011018D01*
X014407Y011070D01*
X014348Y011113D01*
X014282Y011147D01*
X014212Y011170D01*
X014151Y011179D01*
X014151Y010763D01*
X014151Y010828D02*
X014055Y010828D01*
X014055Y010730D02*
X013566Y010730D01*
X013555Y010828D02*
X013649Y010828D01*
X013687Y010927D02*
X013514Y010927D01*
X013440Y011025D02*
X013754Y011025D01*
X013878Y011124D02*
X013298Y011124D01*
X012939Y011124D02*
X012511Y011124D01*
X012652Y011025D02*
X012798Y011025D01*
X012152Y011124D02*
X011527Y011124D01*
X011668Y011025D02*
X012010Y011025D01*
X011936Y010927D02*
X011743Y010927D01*
X011784Y010828D02*
X011895Y010828D01*
X011884Y010730D02*
X011794Y010730D01*
X011794Y010631D02*
X011884Y010631D01*
X011923Y010533D02*
X011839Y010533D01*
X011938Y010434D02*
X011980Y010434D01*
X011541Y010237D02*
X010652Y010237D01*
X010750Y010139D02*
X011640Y010139D01*
X011738Y010040D02*
X010820Y010040D01*
X011094Y010336D02*
X010515Y010336D01*
X011652Y011841D02*
X011764Y011795D01*
X011886Y011795D01*
X011998Y011841D01*
X012084Y011927D01*
X012130Y012039D01*
X012130Y012161D01*
X012084Y012273D01*
X011998Y012359D01*
X011886Y012405D01*
X011764Y012405D01*
X011652Y012359D01*
X011604Y012310D01*
X004696Y012310D01*
X004648Y012359D01*
X004536Y012405D01*
X004414Y012405D01*
X004302Y012359D01*
X004216Y012273D01*
X004170Y012161D01*
X004170Y012039D01*
X004216Y011927D01*
X004302Y011841D01*
X004414Y011795D01*
X004536Y011795D01*
X004648Y011841D01*
X004696Y011890D01*
X011604Y011890D01*
X011652Y011841D01*
X011721Y011813D02*
X004579Y011813D01*
X004371Y011813D02*
X000360Y011813D01*
X000360Y011715D02*
X013442Y011715D01*
X013485Y011671D02*
X013596Y011560D01*
X015584Y011560D01*
X015652Y011491D01*
X015764Y011445D01*
X015886Y011445D01*
X015998Y011491D01*
X016084Y011577D01*
X016130Y011689D01*
X016130Y011811D01*
X016097Y011890D01*
X020724Y011890D01*
X020772Y011841D01*
X020884Y011795D01*
X021006Y011795D01*
X021118Y011841D01*
X021166Y011890D01*
X028504Y011890D01*
X028552Y011841D01*
X028664Y011795D01*
X028786Y011795D01*
X028898Y011841D01*
X028984Y011927D01*
X029030Y012039D01*
X029030Y012161D01*
X028984Y012273D01*
X028898Y012359D01*
X028786Y012405D01*
X028664Y012405D01*
X028552Y012359D01*
X028504Y012310D01*
X021166Y012310D01*
X021118Y012359D01*
X021006Y012405D01*
X020884Y012405D01*
X020772Y012359D01*
X020724Y012310D01*
X014485Y012310D01*
X014485Y013929D01*
X014534Y013977D01*
X014580Y014089D01*
X014580Y014211D01*
X014534Y014323D01*
X014448Y014409D01*
X014336Y014455D01*
X014214Y014455D01*
X014102Y014409D01*
X014016Y014323D01*
X013970Y014211D01*
X013970Y014089D01*
X014016Y013977D01*
X014065Y013929D01*
X014065Y012364D01*
X014052Y012359D01*
X013966Y012273D01*
X013920Y012161D01*
X013920Y012039D01*
X013961Y011940D01*
X013754Y011940D01*
X013715Y011979D01*
X013715Y016760D01*
X015684Y016760D01*
X015752Y016691D01*
X015864Y016645D01*
X015986Y016645D01*
X016098Y016691D01*
X016184Y016777D01*
X016230Y016889D01*
X016230Y017011D01*
X016184Y017123D01*
X016098Y017209D01*
X015986Y017255D01*
X015864Y017255D01*
X015752Y017209D01*
X015684Y017140D01*
X013546Y017140D01*
X013446Y017040D01*
X013335Y016929D01*
X013335Y014821D01*
X013298Y014859D01*
X013186Y014905D01*
X013064Y014905D01*
X012952Y014859D01*
X012866Y014773D01*
X012820Y014661D01*
X012820Y014539D01*
X012866Y014427D01*
X012915Y014379D01*
X012915Y012871D01*
X012866Y012823D01*
X012820Y012711D01*
X012820Y012589D01*
X012866Y012477D01*
X012952Y012391D01*
X013064Y012345D01*
X013186Y012345D01*
X013298Y012391D01*
X013335Y012429D01*
X013335Y011821D01*
X013485Y011671D01*
X013540Y011616D02*
X000360Y011616D01*
X000360Y011518D02*
X015626Y011518D01*
X016024Y011518D02*
X032590Y011518D01*
X032590Y011616D02*
X016100Y011616D01*
X016130Y011715D02*
X032590Y011715D01*
X032590Y011813D02*
X028829Y011813D01*
X028968Y011912D02*
X032590Y011912D01*
X032590Y012010D02*
X029018Y012010D01*
X029030Y012109D02*
X032590Y012109D01*
X032590Y012207D02*
X029011Y012207D01*
X028951Y012306D02*
X032590Y012306D01*
X032590Y012404D02*
X028788Y012404D01*
X028662Y012404D02*
X021008Y012404D01*
X020882Y012404D02*
X014485Y012404D01*
X014485Y012503D02*
X019141Y012503D01*
X019152Y012491D02*
X019264Y012445D01*
X019386Y012445D01*
X019498Y012491D01*
X019584Y012577D01*
X019630Y012689D01*
X019630Y012811D01*
X019584Y012923D01*
X019498Y013009D01*
X019386Y013055D01*
X019264Y013055D01*
X019152Y013009D01*
X019104Y012960D01*
X018085Y012960D01*
X018085Y015537D01*
X017935Y015687D01*
X017862Y015760D01*
X027034Y015760D01*
X027102Y015691D01*
X027214Y015645D01*
X027336Y015645D01*
X027448Y015691D01*
X027534Y015777D01*
X027580Y015889D01*
X027580Y016011D01*
X027534Y016123D01*
X027448Y016209D01*
X027336Y016255D01*
X027214Y016255D01*
X027102Y016209D01*
X027034Y016140D01*
X020989Y016140D01*
X021030Y016239D01*
X021030Y016361D01*
X020984Y016473D01*
X020915Y016541D01*
X032590Y016541D01*
X032590Y016443D02*
X020996Y016443D01*
X021030Y016344D02*
X032590Y016344D01*
X032590Y016246D02*
X027359Y016246D01*
X027191Y016246D02*
X021030Y016246D01*
X020992Y016147D02*
X027041Y016147D01*
X027041Y015753D02*
X017869Y015753D01*
X017967Y015655D02*
X027191Y015655D01*
X027359Y015655D02*
X032590Y015655D01*
X032590Y015753D02*
X027509Y015753D01*
X027564Y015852D02*
X032590Y015852D01*
X032590Y015950D02*
X027580Y015950D01*
X027564Y016049D02*
X032590Y016049D01*
X032590Y016147D02*
X027509Y016147D01*
X031278Y019398D02*
X017766Y019398D01*
X017742Y019456D02*
X017638Y019560D01*
X017503Y019616D01*
X017357Y019616D01*
X017221Y019560D01*
X017118Y019456D01*
X017062Y019321D01*
X017062Y019174D01*
X017118Y019039D01*
X017221Y018936D01*
X017357Y018880D01*
X017503Y018880D01*
X017638Y018936D01*
X017742Y019039D01*
X017798Y019174D01*
X017798Y019321D01*
X017742Y019456D01*
X017702Y019496D02*
X031169Y019496D01*
X031071Y019595D02*
X017554Y019595D01*
X017305Y019595D02*
X015645Y019595D01*
X015593Y019616D02*
X015447Y019616D01*
X015312Y019560D01*
X015208Y019456D01*
X015152Y019321D01*
X015152Y019174D01*
X015208Y019039D01*
X015312Y018936D01*
X015447Y018880D01*
X015593Y018880D01*
X015729Y018936D01*
X015832Y019039D01*
X015888Y019174D01*
X015888Y019321D01*
X015832Y019456D01*
X015729Y019560D01*
X015593Y019616D01*
X015396Y019595D02*
X001879Y019595D01*
X001920Y019636D02*
X001920Y019636D01*
X001944Y019693D02*
X031006Y019693D01*
X031030Y019636D02*
X031030Y019636D01*
X030965Y019792D02*
X001985Y019792D01*
X002026Y019890D02*
X014796Y019890D01*
X014757Y019906D02*
X014950Y019826D01*
X015158Y019826D01*
X015350Y019906D01*
X015498Y020053D01*
X015577Y020246D01*
X015577Y020454D01*
X015498Y020647D01*
X015350Y020794D01*
X015158Y020874D01*
X014950Y020874D01*
X014757Y020794D01*
X014610Y020647D01*
X014530Y020454D01*
X014530Y020246D01*
X014610Y020053D01*
X014757Y019906D01*
X014675Y019989D02*
X002045Y019989D01*
X002045Y020087D02*
X014596Y020087D01*
X014555Y020186D02*
X002045Y020186D01*
X002036Y020284D02*
X014530Y020284D01*
X014530Y020383D02*
X001996Y020383D01*
X001955Y020481D02*
X014541Y020481D01*
X014582Y020580D02*
X001905Y020580D01*
X001807Y020678D02*
X014641Y020678D01*
X014740Y020777D02*
X001708Y020777D01*
X001689Y020795D02*
X001689Y020795D01*
X001497Y020875D02*
X031453Y020875D01*
X031242Y020777D02*
X018210Y020777D01*
X018193Y020794D02*
X018000Y020874D01*
X017792Y020874D01*
X017600Y020794D01*
X017452Y020647D01*
X017373Y020454D01*
X017373Y020246D01*
X017452Y020053D01*
X017600Y019906D01*
X017792Y019826D01*
X018000Y019826D01*
X018193Y019906D01*
X018340Y020053D01*
X018420Y020246D01*
X018420Y020454D01*
X018340Y020647D01*
X018193Y020794D01*
X018309Y020678D02*
X031143Y020678D01*
X031045Y020580D02*
X018368Y020580D01*
X018409Y020481D02*
X030995Y020481D01*
X030954Y020383D02*
X018420Y020383D01*
X018420Y020284D02*
X030914Y020284D01*
X030905Y020186D02*
X018395Y020186D01*
X018354Y020087D02*
X030905Y020087D01*
X030905Y019989D02*
X018275Y019989D01*
X018154Y019890D02*
X030924Y019890D01*
X031516Y019299D02*
X017798Y019299D01*
X017798Y019201D02*
X032590Y019201D01*
X032590Y019299D02*
X031934Y019299D01*
X031888Y019280D02*
X031888Y019280D01*
X032172Y019398D02*
X032590Y019398D01*
X032590Y019496D02*
X032281Y019496D01*
X032379Y019595D02*
X032590Y019595D01*
X032590Y019693D02*
X032444Y019693D01*
X032485Y019792D02*
X032590Y019792D01*
X032590Y019890D02*
X032526Y019890D01*
X032545Y019989D02*
X032590Y019989D01*
X032590Y020087D02*
X032545Y020087D01*
X032545Y020186D02*
X032588Y020186D01*
X032569Y020284D02*
X032536Y020284D01*
X032537Y020383D02*
X032496Y020383D01*
X032505Y020481D02*
X032455Y020481D01*
X032439Y020580D02*
X032405Y020580D01*
X032367Y020678D02*
X032307Y020678D01*
X032256Y020777D02*
X032208Y020777D01*
X032590Y019102D02*
X017768Y019102D01*
X017706Y019004D02*
X032590Y019004D01*
X032590Y018905D02*
X017565Y018905D01*
X017295Y018905D02*
X015655Y018905D01*
X015797Y019004D02*
X017153Y019004D01*
X017092Y019102D02*
X015858Y019102D01*
X015888Y019201D02*
X017062Y019201D01*
X017062Y019299D02*
X015888Y019299D01*
X015857Y019398D02*
X017093Y019398D01*
X017158Y019496D02*
X015792Y019496D01*
X015248Y019496D02*
X001781Y019496D01*
X001672Y019398D02*
X015184Y019398D01*
X015152Y019299D02*
X001434Y019299D01*
X001016Y019299D02*
X000360Y019299D01*
X000360Y019201D02*
X015152Y019201D01*
X015182Y019102D02*
X000360Y019102D01*
X000360Y019004D02*
X015244Y019004D01*
X015385Y018905D02*
X000360Y018905D01*
X000360Y018807D02*
X032590Y018807D01*
X032590Y018708D02*
X000360Y018708D01*
X000360Y018610D02*
X032590Y018610D01*
X032590Y018511D02*
X000360Y018511D01*
X000360Y018413D02*
X032590Y018413D01*
X032590Y018314D02*
X000360Y018314D01*
X000360Y018216D02*
X032590Y018216D01*
X032590Y018117D02*
X017289Y018117D01*
X017316Y018090D02*
X017248Y018159D01*
X017136Y018205D01*
X017014Y018205D01*
X016902Y018159D01*
X016816Y018073D01*
X016770Y017961D01*
X016770Y017839D01*
X016816Y017727D01*
X016902Y017641D01*
X017014Y017595D01*
X017136Y017595D01*
X017248Y017641D01*
X017316Y017710D01*
X020535Y017710D01*
X020535Y016541D01*
X018647Y016541D01*
X018648Y016541D02*
X018734Y016627D01*
X018780Y016739D01*
X018780Y016861D01*
X018734Y016973D01*
X018648Y017059D01*
X018536Y017105D01*
X018414Y017105D01*
X018302Y017059D01*
X018254Y017010D01*
X017096Y017010D01*
X017048Y017059D01*
X016936Y017105D01*
X016814Y017105D01*
X016702Y017059D01*
X016616Y016973D01*
X016570Y016861D01*
X016570Y016739D01*
X016616Y016627D01*
X016702Y016541D01*
X016814Y016495D01*
X016936Y016495D01*
X017048Y016541D01*
X017096Y016590D01*
X018254Y016590D01*
X018302Y016541D01*
X018414Y016495D01*
X018536Y016495D01*
X018648Y016541D01*
X018739Y016640D02*
X020535Y016640D01*
X020535Y016738D02*
X018779Y016738D01*
X018780Y016837D02*
X020535Y016837D01*
X020535Y016935D02*
X018749Y016935D01*
X018673Y017034D02*
X020535Y017034D01*
X020535Y017132D02*
X016174Y017132D01*
X016221Y017034D02*
X016677Y017034D01*
X016601Y016935D02*
X016230Y016935D01*
X016208Y016837D02*
X016570Y016837D01*
X016571Y016738D02*
X016144Y016738D01*
X015706Y016738D02*
X013715Y016738D01*
X013715Y016640D02*
X016611Y016640D01*
X016703Y016541D02*
X013715Y016541D01*
X013715Y016443D02*
X020454Y016443D01*
X020466Y016473D02*
X020420Y016361D01*
X020420Y016239D01*
X020461Y016140D01*
X014566Y016140D01*
X014498Y016209D01*
X014386Y016255D01*
X014264Y016255D01*
X014152Y016209D01*
X014066Y016123D01*
X014020Y016011D01*
X014020Y015889D01*
X014066Y015777D01*
X014152Y015691D01*
X014264Y015645D01*
X014386Y015645D01*
X014498Y015691D01*
X014566Y015760D01*
X014656Y015760D01*
X014652Y015759D01*
X014566Y015673D01*
X014520Y015561D01*
X014520Y015439D01*
X014566Y015327D01*
X014615Y015279D01*
X014615Y014813D01*
X014738Y014690D01*
X014888Y014540D01*
X016538Y014540D01*
X017015Y014063D01*
X017015Y013071D01*
X016966Y013023D01*
X016920Y012911D01*
X016920Y012789D01*
X016966Y012677D01*
X017052Y012591D01*
X017164Y012545D01*
X017286Y012545D01*
X017398Y012591D01*
X017484Y012677D01*
X017530Y012789D01*
X017530Y012911D01*
X017484Y013023D01*
X017435Y013071D01*
X017435Y014237D01*
X017227Y014445D01*
X017336Y014445D01*
X017448Y014491D01*
X017534Y014577D01*
X017580Y014689D01*
X017580Y014811D01*
X017534Y014923D01*
X017448Y015009D01*
X017336Y015055D01*
X017214Y015055D01*
X017102Y015009D01*
X017054Y014960D01*
X015062Y014960D01*
X015035Y014987D01*
X015035Y015279D01*
X015084Y015327D01*
X015122Y015421D01*
X015202Y015341D01*
X015314Y015295D01*
X015436Y015295D01*
X015548Y015341D01*
X015616Y015410D01*
X016464Y015410D01*
X016532Y015341D01*
X016644Y015295D01*
X016766Y015295D01*
X016878Y015341D01*
X016926Y015390D01*
X017638Y015390D01*
X017665Y015363D01*
X017665Y012763D01*
X017788Y012640D01*
X017888Y012540D01*
X019104Y012540D01*
X019152Y012491D01*
X019509Y012503D02*
X032590Y012503D01*
X032590Y012601D02*
X019593Y012601D01*
X019630Y012700D02*
X032590Y012700D01*
X032590Y012798D02*
X019630Y012798D01*
X019594Y012897D02*
X032590Y012897D01*
X032590Y012995D02*
X019511Y012995D01*
X019139Y012995D02*
X018085Y012995D01*
X018085Y013094D02*
X032590Y013094D01*
X032590Y013192D02*
X018085Y013192D01*
X018085Y013291D02*
X032590Y013291D01*
X032590Y013389D02*
X018085Y013389D01*
X018085Y013488D02*
X032590Y013488D01*
X032590Y013586D02*
X018085Y013586D01*
X018085Y013685D02*
X032590Y013685D01*
X032590Y013783D02*
X018085Y013783D01*
X018085Y013882D02*
X032590Y013882D01*
X032590Y013980D02*
X018085Y013980D01*
X018085Y014079D02*
X032590Y014079D01*
X032590Y014177D02*
X018085Y014177D01*
X018085Y014276D02*
X032590Y014276D01*
X032590Y014374D02*
X018085Y014374D01*
X018085Y014473D02*
X032590Y014473D01*
X032590Y014571D02*
X018085Y014571D01*
X018085Y014670D02*
X032590Y014670D01*
X032590Y014768D02*
X018085Y014768D01*
X018085Y014867D02*
X032590Y014867D01*
X032590Y014965D02*
X018085Y014965D01*
X018085Y015064D02*
X032590Y015064D01*
X032590Y015162D02*
X018085Y015162D01*
X018085Y015261D02*
X032590Y015261D01*
X032590Y015359D02*
X018085Y015359D01*
X018085Y015458D02*
X032590Y015458D01*
X032590Y015556D02*
X018066Y015556D01*
X017665Y015359D02*
X016895Y015359D01*
X016515Y015359D02*
X015565Y015359D01*
X015185Y015359D02*
X015097Y015359D01*
X015035Y015261D02*
X017665Y015261D01*
X017665Y015162D02*
X015035Y015162D01*
X015035Y015064D02*
X017665Y015064D01*
X017665Y014965D02*
X017491Y014965D01*
X017557Y014867D02*
X017665Y014867D01*
X017665Y014768D02*
X017580Y014768D01*
X017572Y014670D02*
X017665Y014670D01*
X017665Y014571D02*
X017527Y014571D01*
X017402Y014473D02*
X017665Y014473D01*
X017665Y014374D02*
X017298Y014374D01*
X017396Y014276D02*
X017665Y014276D01*
X017665Y014177D02*
X017435Y014177D01*
X017435Y014079D02*
X017665Y014079D01*
X017665Y013980D02*
X017435Y013980D01*
X017435Y013882D02*
X017665Y013882D01*
X017665Y013783D02*
X017435Y013783D01*
X017435Y013685D02*
X017665Y013685D01*
X017665Y013586D02*
X017435Y013586D01*
X017435Y013488D02*
X017665Y013488D01*
X017665Y013389D02*
X017435Y013389D01*
X017435Y013291D02*
X017665Y013291D01*
X017665Y013192D02*
X017435Y013192D01*
X017435Y013094D02*
X017665Y013094D01*
X017665Y012995D02*
X017495Y012995D01*
X017530Y012897D02*
X017665Y012897D01*
X017665Y012798D02*
X017530Y012798D01*
X017493Y012700D02*
X017728Y012700D01*
X017827Y012601D02*
X017407Y012601D01*
X017043Y012601D02*
X014485Y012601D01*
X014485Y012700D02*
X016957Y012700D01*
X016920Y012798D02*
X014485Y012798D01*
X014485Y012897D02*
X016920Y012897D01*
X016955Y012995D02*
X014485Y012995D01*
X014485Y013094D02*
X017015Y013094D01*
X017015Y013192D02*
X014485Y013192D01*
X014485Y013291D02*
X017015Y013291D01*
X017015Y013389D02*
X014485Y013389D01*
X014485Y013488D02*
X017015Y013488D01*
X017015Y013586D02*
X014485Y013586D01*
X014485Y013685D02*
X017015Y013685D01*
X017015Y013783D02*
X014485Y013783D01*
X014485Y013882D02*
X017015Y013882D01*
X017015Y013980D02*
X014535Y013980D01*
X014576Y014079D02*
X016999Y014079D01*
X016901Y014177D02*
X014580Y014177D01*
X014553Y014276D02*
X016802Y014276D01*
X016704Y014374D02*
X014482Y014374D01*
X014758Y014670D02*
X013715Y014670D01*
X013715Y014768D02*
X014660Y014768D01*
X014615Y014867D02*
X013715Y014867D01*
X013715Y014965D02*
X014615Y014965D01*
X014615Y015064D02*
X013715Y015064D01*
X013715Y015162D02*
X014615Y015162D01*
X014615Y015261D02*
X013715Y015261D01*
X013715Y015359D02*
X014553Y015359D01*
X014520Y015458D02*
X013715Y015458D01*
X013715Y015556D02*
X014520Y015556D01*
X014559Y015655D02*
X014409Y015655D01*
X014241Y015655D02*
X013715Y015655D01*
X013715Y015753D02*
X014091Y015753D01*
X014036Y015852D02*
X013715Y015852D01*
X013715Y015950D02*
X014020Y015950D01*
X014036Y016049D02*
X013715Y016049D01*
X013715Y016147D02*
X014091Y016147D01*
X014241Y016246D02*
X013715Y016246D01*
X013715Y016344D02*
X020420Y016344D01*
X020420Y016246D02*
X014409Y016246D01*
X014559Y016147D02*
X020458Y016147D01*
X020466Y016473D02*
X020535Y016541D01*
X020915Y016541D02*
X020915Y017879D01*
X020804Y017990D01*
X020704Y018090D01*
X017316Y018090D01*
X016861Y018117D02*
X000360Y018117D01*
X000360Y018019D02*
X016794Y018019D01*
X016770Y017920D02*
X000360Y017920D01*
X000360Y017822D02*
X016777Y017822D01*
X016821Y017723D02*
X000360Y017723D01*
X000360Y017625D02*
X016943Y017625D01*
X017207Y017625D02*
X020535Y017625D01*
X020535Y017526D02*
X000360Y017526D01*
X000360Y017428D02*
X020535Y017428D01*
X020535Y017329D02*
X000360Y017329D01*
X000360Y017231D02*
X015805Y017231D01*
X016045Y017231D02*
X020535Y017231D01*
X020915Y017231D02*
X032590Y017231D01*
X032590Y017329D02*
X020915Y017329D01*
X020915Y017428D02*
X032590Y017428D01*
X032590Y017526D02*
X020915Y017526D01*
X020915Y017625D02*
X032590Y017625D01*
X032590Y017723D02*
X020915Y017723D01*
X020915Y017822D02*
X032590Y017822D01*
X032590Y017920D02*
X020874Y017920D01*
X020775Y018019D02*
X032590Y018019D01*
X032590Y017132D02*
X020915Y017132D01*
X020915Y017034D02*
X032590Y017034D01*
X032590Y016935D02*
X020915Y016935D01*
X020915Y016837D02*
X032590Y016837D01*
X032590Y016738D02*
X020915Y016738D01*
X020915Y016640D02*
X032590Y016640D01*
X028621Y011813D02*
X021049Y011813D01*
X020841Y011813D02*
X016129Y011813D01*
X014519Y010927D02*
X018451Y010927D01*
X018410Y010828D02*
X014557Y010828D01*
X014452Y011025D02*
X018526Y011025D01*
X018667Y011124D02*
X014328Y011124D01*
X014151Y011124D02*
X014055Y011124D01*
X014055Y011025D02*
X014151Y011025D01*
X014151Y010927D02*
X014055Y010927D01*
X013643Y010631D02*
X013566Y010631D01*
X013527Y010533D02*
X013672Y010533D01*
X013730Y010434D02*
X013470Y010434D01*
X013747Y010410D02*
X013747Y010410D01*
X013343Y011813D02*
X011929Y011813D01*
X012068Y011912D02*
X013335Y011912D01*
X013335Y012010D02*
X012118Y012010D01*
X012130Y012109D02*
X013335Y012109D01*
X013335Y012207D02*
X012111Y012207D01*
X012051Y012306D02*
X013335Y012306D01*
X013335Y012404D02*
X013310Y012404D01*
X012940Y012404D02*
X011888Y012404D01*
X011762Y012404D02*
X004538Y012404D01*
X004412Y012404D02*
X000360Y012404D01*
X000360Y012306D02*
X004249Y012306D01*
X004189Y012207D02*
X000360Y012207D01*
X000360Y012109D02*
X004170Y012109D01*
X004182Y012010D02*
X000360Y012010D01*
X000360Y011912D02*
X004232Y011912D01*
X003402Y009843D02*
X007048Y009843D01*
X007032Y009745D02*
X003418Y009745D01*
X003418Y009646D02*
X007032Y009646D01*
X007032Y009548D02*
X003418Y009548D01*
X003400Y009449D02*
X007050Y009449D01*
X007090Y009351D02*
X003360Y009351D01*
X003319Y009252D02*
X007131Y009252D01*
X007202Y009154D02*
X003248Y009154D01*
X003149Y009055D02*
X007301Y009055D01*
X007441Y008957D02*
X003009Y008957D01*
X001710Y007775D02*
X031240Y007775D01*
X031261Y007795D02*
X031030Y007564D01*
X030905Y007263D01*
X030905Y006937D01*
X031030Y006636D01*
X031030Y006636D01*
X031261Y006405D01*
X031562Y006280D01*
X031688Y006280D01*
X031888Y006280D01*
X032189Y006405D01*
X032189Y006405D01*
X032420Y006636D01*
X032545Y006937D01*
X032545Y007263D01*
X032420Y007564D01*
X032420Y007564D01*
X032189Y007795D01*
X031888Y007920D01*
X031562Y007920D01*
X031261Y007795D01*
X031261Y007795D01*
X031141Y007676D02*
X001809Y007676D01*
X001907Y007578D02*
X031043Y007578D01*
X031030Y007564D02*
X031030Y007564D01*
X030994Y007479D02*
X001956Y007479D01*
X001996Y007381D02*
X030954Y007381D01*
X030913Y007282D02*
X002037Y007282D01*
X002045Y007184D02*
X030905Y007184D01*
X030905Y007085D02*
X002045Y007085D01*
X002045Y006987D02*
X030905Y006987D01*
X030925Y006888D02*
X002025Y006888D01*
X001984Y006790D02*
X030966Y006790D01*
X031007Y006691D02*
X001943Y006691D01*
X001877Y006593D02*
X031073Y006593D01*
X031171Y006494D02*
X001779Y006494D01*
X001667Y006396D02*
X031283Y006396D01*
X031521Y006297D02*
X001429Y006297D01*
X001502Y007873D02*
X031448Y007873D01*
X032002Y007873D02*
X032590Y007873D01*
X032590Y007775D02*
X032210Y007775D01*
X032189Y007795D02*
X032189Y007795D01*
X032309Y007676D02*
X032590Y007676D01*
X032590Y007578D02*
X032407Y007578D01*
X032456Y007479D02*
X032590Y007479D01*
X032590Y007381D02*
X032496Y007381D01*
X032537Y007282D02*
X032590Y007282D01*
X032590Y007184D02*
X032545Y007184D01*
X032545Y007085D02*
X032590Y007085D01*
X032582Y006987D02*
X032545Y006987D01*
X032553Y006888D02*
X032525Y006888D01*
X032518Y006790D02*
X032484Y006790D01*
X032480Y006691D02*
X032443Y006691D01*
X032420Y006636D02*
X032420Y006636D01*
X032403Y006593D02*
X032377Y006593D01*
X032327Y006494D02*
X032279Y006494D01*
X032196Y006396D02*
X032167Y006396D01*
X032015Y006297D02*
X031929Y006297D01*
X032590Y008957D02*
X030682Y008957D01*
X030753Y008986D02*
X030973Y009205D01*
X031092Y009492D01*
X031092Y009802D01*
X030973Y010089D01*
X030753Y010309D01*
X030467Y010427D01*
X030157Y010427D01*
X029870Y010309D01*
X029650Y010089D01*
X029532Y009802D01*
X029532Y009492D01*
X029650Y009205D01*
X029870Y008986D01*
X030157Y008867D01*
X030467Y008867D01*
X030753Y008986D01*
X030822Y009055D02*
X032590Y009055D01*
X032590Y009154D02*
X030921Y009154D01*
X030992Y009252D02*
X032590Y009252D01*
X032590Y009351D02*
X031033Y009351D01*
X031074Y009449D02*
X032590Y009449D01*
X032590Y009548D02*
X031092Y009548D01*
X031092Y009646D02*
X032590Y009646D01*
X032590Y009745D02*
X031092Y009745D01*
X031075Y009843D02*
X032590Y009843D01*
X032590Y009942D02*
X031034Y009942D01*
X030993Y010040D02*
X032590Y010040D01*
X032590Y010139D02*
X030924Y010139D01*
X030825Y010237D02*
X032590Y010237D01*
X032590Y010336D02*
X030688Y010336D01*
X029935Y010336D02*
X029376Y010336D01*
X029348Y010315D02*
X029407Y010358D01*
X029459Y010410D01*
X029502Y010470D01*
X029536Y010535D01*
X029558Y010605D01*
X029568Y010666D01*
X029151Y010666D01*
X029151Y010249D01*
X029212Y010259D01*
X029282Y010282D01*
X029348Y010315D01*
X029476Y010434D02*
X032590Y010434D01*
X032590Y010533D02*
X029534Y010533D01*
X029562Y010631D02*
X032590Y010631D01*
X032590Y010730D02*
X029151Y010730D01*
X029151Y010763D02*
X029568Y010763D01*
X029558Y010824D01*
X029536Y010893D01*
X029502Y010959D01*
X029459Y011018D01*
X029407Y011070D01*
X029348Y011113D01*
X029282Y011147D01*
X029212Y011170D01*
X029151Y011179D01*
X029151Y010763D01*
X029055Y010763D01*
X029055Y011179D01*
X028994Y011170D01*
X028924Y011147D01*
X028858Y011113D01*
X028799Y011070D01*
X028747Y011018D01*
X028704Y010959D01*
X028670Y010893D01*
X028648Y010824D01*
X028638Y010763D01*
X029055Y010763D01*
X029055Y010666D01*
X029151Y010666D01*
X029151Y010763D01*
X029151Y010828D02*
X029055Y010828D01*
X029055Y010730D02*
X028566Y010730D01*
X028566Y010803D02*
X028566Y010625D01*
X028498Y010461D01*
X028372Y010335D01*
X028208Y010267D01*
X028030Y010267D01*
X027866Y010335D01*
X027740Y010461D01*
X027725Y010497D01*
X027710Y010461D01*
X027584Y010335D01*
X027420Y010267D01*
X027242Y010267D01*
X027078Y010335D01*
X026952Y010461D01*
X026884Y010625D01*
X026884Y010803D01*
X026952Y010967D01*
X027078Y011093D01*
X027242Y011161D01*
X027420Y011161D01*
X027584Y011093D01*
X027710Y010967D01*
X027725Y010931D01*
X027740Y010967D01*
X027866Y011093D01*
X028030Y011161D01*
X028208Y011161D01*
X028372Y011093D01*
X028498Y010967D01*
X028566Y010803D01*
X028555Y010828D02*
X028649Y010828D01*
X028687Y010927D02*
X028514Y010927D01*
X028440Y011025D02*
X028754Y011025D01*
X028878Y011124D02*
X028298Y011124D01*
X027939Y011124D02*
X027511Y011124D01*
X027652Y011025D02*
X027798Y011025D01*
X027152Y011124D02*
X026527Y011124D01*
X026668Y011025D02*
X027010Y011025D01*
X026936Y010927D02*
X026743Y010927D01*
X026784Y010828D02*
X026895Y010828D01*
X026884Y010730D02*
X026794Y010730D01*
X026794Y010631D02*
X026884Y010631D01*
X026923Y010533D02*
X026755Y010533D01*
X026699Y010434D02*
X026980Y010434D01*
X027078Y010336D02*
X026600Y010336D01*
X026094Y010336D02*
X025515Y010336D01*
X025652Y010237D02*
X029798Y010237D01*
X029700Y010139D02*
X025750Y010139D01*
X025820Y010040D02*
X029630Y010040D01*
X029589Y009942D02*
X025861Y009942D01*
X025902Y009843D02*
X029548Y009843D01*
X029532Y009745D02*
X025918Y009745D01*
X025918Y009646D02*
X029532Y009646D01*
X029532Y009548D02*
X025918Y009548D01*
X025900Y009449D02*
X029550Y009449D01*
X029590Y009351D02*
X025860Y009351D01*
X025819Y009252D02*
X029631Y009252D01*
X029702Y009154D02*
X025748Y009154D01*
X025649Y009055D02*
X029801Y009055D01*
X029941Y008957D02*
X025509Y008957D01*
X024768Y008957D02*
X023182Y008957D01*
X023322Y009055D02*
X024628Y009055D01*
X024529Y009154D02*
X023421Y009154D01*
X023492Y009252D02*
X024458Y009252D01*
X024417Y009351D02*
X023533Y009351D01*
X023574Y009449D02*
X024376Y009449D01*
X024358Y009548D02*
X023592Y009548D01*
X023592Y009646D02*
X024358Y009646D01*
X024358Y009745D02*
X023592Y009745D01*
X023575Y009843D02*
X024375Y009843D01*
X024416Y009942D02*
X023534Y009942D01*
X023493Y010040D02*
X024457Y010040D01*
X024526Y010139D02*
X023424Y010139D01*
X023325Y010237D02*
X024625Y010237D01*
X024762Y010336D02*
X023188Y010336D01*
X022208Y010730D02*
X021651Y010730D01*
X021651Y010763D02*
X022068Y010763D01*
X022058Y010824D01*
X022036Y010893D01*
X022002Y010959D01*
X021959Y011018D01*
X021907Y011070D01*
X021848Y011113D01*
X021782Y011147D01*
X021712Y011170D01*
X021651Y011179D01*
X021651Y010763D01*
X021651Y010828D02*
X021555Y010828D01*
X021555Y010730D02*
X021066Y010730D01*
X021055Y010828D02*
X021149Y010828D01*
X021187Y010927D02*
X021014Y010927D01*
X020940Y011025D02*
X021254Y011025D01*
X021378Y011124D02*
X020798Y011124D01*
X020439Y011124D02*
X020011Y011124D01*
X020152Y011025D02*
X020298Y011025D01*
X019652Y011124D02*
X019027Y011124D01*
X019168Y011025D02*
X019510Y011025D01*
X019436Y010927D02*
X019243Y010927D01*
X019284Y010828D02*
X019395Y010828D01*
X019384Y010730D02*
X019294Y010730D01*
X019294Y010631D02*
X019384Y010631D01*
X019423Y010533D02*
X019339Y010533D01*
X019438Y010434D02*
X019480Y010434D01*
X019140Y010139D02*
X018250Y010139D01*
X018320Y010040D02*
X019238Y010040D01*
X019041Y010237D02*
X018152Y010237D01*
X018015Y010336D02*
X018594Y010336D01*
X018361Y009942D02*
X022089Y009942D01*
X022112Y010040D02*
X022130Y010040D01*
X022048Y009843D02*
X018402Y009843D01*
X018418Y009745D02*
X022032Y009745D01*
X022032Y009646D02*
X018418Y009646D01*
X018418Y009548D02*
X022032Y009548D01*
X022050Y009449D02*
X018400Y009449D01*
X018360Y009351D02*
X022090Y009351D01*
X022131Y009252D02*
X018319Y009252D01*
X018248Y009154D02*
X022202Y009154D01*
X022301Y009055D02*
X018149Y009055D01*
X018009Y008957D02*
X022441Y008957D01*
X021247Y010410D02*
X021247Y010410D01*
X021230Y010434D02*
X020970Y010434D01*
X021027Y010533D02*
X021172Y010533D01*
X021143Y010631D02*
X021066Y010631D01*
X021555Y010927D02*
X021651Y010927D01*
X021651Y011025D02*
X021555Y011025D01*
X021555Y011124D02*
X021651Y011124D01*
X021828Y011124D02*
X026167Y011124D01*
X026026Y011025D02*
X021952Y011025D01*
X022019Y010927D02*
X025951Y010927D01*
X025910Y010828D02*
X022057Y010828D01*
X022062Y010631D02*
X022109Y010631D01*
X017262Y010336D02*
X015688Y010336D01*
X015825Y010237D02*
X017125Y010237D01*
X017026Y010139D02*
X015924Y010139D01*
X015993Y010040D02*
X016957Y010040D01*
X016916Y009942D02*
X016034Y009942D01*
X016075Y009843D02*
X016875Y009843D01*
X016858Y009745D02*
X016092Y009745D01*
X016092Y009646D02*
X016858Y009646D01*
X016858Y009548D02*
X016092Y009548D01*
X016074Y009449D02*
X016876Y009449D01*
X016917Y009351D02*
X016033Y009351D01*
X015992Y009252D02*
X016958Y009252D01*
X017029Y009154D02*
X015921Y009154D01*
X015822Y009055D02*
X017128Y009055D01*
X017268Y008957D02*
X015682Y008957D01*
X013932Y012010D02*
X013715Y012010D01*
X013715Y012109D02*
X013920Y012109D01*
X013939Y012207D02*
X013715Y012207D01*
X013715Y012306D02*
X013999Y012306D01*
X014065Y012404D02*
X013715Y012404D01*
X013715Y012503D02*
X014065Y012503D01*
X014065Y012601D02*
X013715Y012601D01*
X013715Y012700D02*
X014065Y012700D01*
X014065Y012798D02*
X013715Y012798D01*
X013715Y012897D02*
X014065Y012897D01*
X014065Y012995D02*
X013715Y012995D01*
X013715Y013094D02*
X014065Y013094D01*
X014065Y013192D02*
X013715Y013192D01*
X013715Y013291D02*
X014065Y013291D01*
X014065Y013389D02*
X013715Y013389D01*
X013715Y013488D02*
X014065Y013488D01*
X014065Y013586D02*
X013715Y013586D01*
X013715Y013685D02*
X014065Y013685D01*
X014065Y013783D02*
X013715Y013783D01*
X013715Y013882D02*
X014065Y013882D01*
X014015Y013980D02*
X013715Y013980D01*
X013715Y014079D02*
X013974Y014079D01*
X013970Y014177D02*
X013715Y014177D01*
X013715Y014276D02*
X013997Y014276D01*
X014068Y014374D02*
X013715Y014374D01*
X013715Y014473D02*
X016605Y014473D01*
X017059Y014965D02*
X015057Y014965D01*
X014857Y014571D02*
X013715Y014571D01*
X013335Y014867D02*
X013279Y014867D01*
X013335Y014965D02*
X000360Y014965D01*
X000360Y014867D02*
X012971Y014867D01*
X012864Y014768D02*
X000360Y014768D01*
X000360Y014670D02*
X012824Y014670D01*
X012820Y014571D02*
X000360Y014571D01*
X000360Y014473D02*
X012848Y014473D01*
X012915Y014374D02*
X000360Y014374D01*
X000360Y014276D02*
X012915Y014276D01*
X012915Y014177D02*
X000360Y014177D01*
X000360Y014079D02*
X012915Y014079D01*
X012915Y013980D02*
X000360Y013980D01*
X000360Y013882D02*
X012915Y013882D01*
X012915Y013783D02*
X000360Y013783D01*
X000360Y013685D02*
X012915Y013685D01*
X012915Y013586D02*
X000360Y013586D01*
X000360Y013488D02*
X012915Y013488D01*
X012915Y013389D02*
X000360Y013389D01*
X000360Y013291D02*
X012915Y013291D01*
X012915Y013192D02*
X000360Y013192D01*
X000360Y013094D02*
X012915Y013094D01*
X012915Y012995D02*
X000360Y012995D01*
X000360Y012897D02*
X012915Y012897D01*
X012856Y012798D02*
X000360Y012798D01*
X000360Y012700D02*
X012820Y012700D01*
X012820Y012601D02*
X000360Y012601D01*
X000360Y012503D02*
X012856Y012503D01*
X013335Y015064D02*
X000360Y015064D01*
X000360Y015162D02*
X013335Y015162D01*
X013335Y015261D02*
X000360Y015261D01*
X000360Y015359D02*
X013335Y015359D01*
X013335Y015458D02*
X000360Y015458D01*
X000360Y015556D02*
X013335Y015556D01*
X013335Y015655D02*
X000360Y015655D01*
X000360Y015753D02*
X013335Y015753D01*
X013335Y015852D02*
X000360Y015852D01*
X000360Y015950D02*
X013335Y015950D01*
X013335Y016049D02*
X000360Y016049D01*
X000360Y016147D02*
X013335Y016147D01*
X013335Y016246D02*
X000360Y016246D01*
X000360Y016344D02*
X013335Y016344D01*
X013335Y016443D02*
X000360Y016443D01*
X000360Y016541D02*
X013335Y016541D01*
X013335Y016640D02*
X000360Y016640D01*
X000360Y016738D02*
X013335Y016738D01*
X013335Y016837D02*
X000360Y016837D01*
X000360Y016935D02*
X013341Y016935D01*
X013440Y017034D02*
X000360Y017034D01*
X000360Y017132D02*
X013538Y017132D01*
X014559Y015753D02*
X014647Y015753D01*
X017047Y016541D02*
X018303Y016541D01*
X018277Y017034D02*
X017073Y017034D01*
X017638Y019890D02*
X015312Y019890D01*
X015433Y019989D02*
X017517Y019989D01*
X017438Y020087D02*
X015512Y020087D01*
X015552Y020186D02*
X017398Y020186D01*
X017373Y020284D02*
X015577Y020284D01*
X015577Y020383D02*
X017373Y020383D01*
X017384Y020481D02*
X015566Y020481D01*
X015526Y020580D02*
X017424Y020580D01*
X017484Y020678D02*
X015466Y020678D01*
X015368Y020777D02*
X017582Y020777D01*
X029055Y011124D02*
X029151Y011124D01*
X029151Y011025D02*
X029055Y011025D01*
X029055Y010927D02*
X029151Y010927D01*
X029328Y011124D02*
X032590Y011124D01*
X032590Y011222D02*
X000360Y011222D01*
X000360Y011321D02*
X032590Y011321D01*
X032590Y011419D02*
X000360Y011419D01*
X000360Y019398D02*
X000778Y019398D01*
X000761Y019405D02*
X000761Y019405D01*
X000669Y019496D02*
X000360Y019496D01*
X000360Y019595D02*
X000571Y019595D01*
X000506Y019693D02*
X000360Y019693D01*
X000360Y019792D02*
X000465Y019792D01*
X000424Y019890D02*
X000360Y019890D01*
X000360Y019989D02*
X000405Y019989D01*
X000405Y020087D02*
X000360Y020087D01*
X000362Y020186D02*
X000405Y020186D01*
X000414Y020284D02*
X000381Y020284D01*
X000413Y020383D02*
X000454Y020383D01*
X000445Y020481D02*
X000495Y020481D01*
X000530Y020564D02*
X000530Y020564D01*
X000545Y020580D02*
X000511Y020580D01*
X000583Y020678D02*
X000643Y020678D01*
X000694Y020777D02*
X000742Y020777D01*
X000830Y020875D02*
X001089Y020959D01*
X027585Y010336D02*
X027865Y010336D01*
X027767Y010434D02*
X027683Y010434D01*
X028372Y010336D02*
X028830Y010336D01*
X028858Y010315D02*
X028924Y010282D01*
X028994Y010259D01*
X029055Y010249D01*
X029055Y010666D01*
X028638Y010666D01*
X028648Y010605D01*
X028670Y010535D01*
X028704Y010470D01*
X028747Y010410D01*
X028799Y010358D01*
X028858Y010315D01*
X028730Y010434D02*
X028470Y010434D01*
X028527Y010533D02*
X028672Y010533D01*
X028643Y010631D02*
X028566Y010631D01*
X029055Y010631D02*
X029151Y010631D01*
X029151Y010533D02*
X029055Y010533D01*
X029055Y010434D02*
X029151Y010434D01*
X029151Y010336D02*
X029055Y010336D01*
X029557Y010828D02*
X032590Y010828D01*
X032590Y010927D02*
X029519Y010927D01*
X029452Y011025D02*
X032590Y011025D01*
D15*
X028725Y012100D03*
X027275Y015950D03*
X020945Y012100D03*
X019325Y012750D03*
X017225Y012850D03*
X015825Y011750D03*
X014225Y012100D03*
X013125Y012650D03*
X011825Y012100D03*
X014275Y014150D03*
X013125Y014600D03*
X014825Y015500D03*
X015375Y015600D03*
X014325Y015950D03*
X015925Y016950D03*
X016875Y016800D03*
X017075Y017900D03*
X018475Y016800D03*
X016705Y015600D03*
X017275Y014750D03*
X020725Y016300D03*
X004475Y012100D03*
D16*
X011825Y012100D01*
X013125Y012650D02*
X013125Y014600D01*
X014275Y014150D02*
X014275Y012150D01*
X014325Y012100D01*
X020945Y012100D01*
X028725Y012100D01*
X026183Y010550D02*
X022325Y010550D01*
X021975Y010200D01*
X019375Y010200D01*
X018847Y010728D01*
X018847Y010714D01*
X018733Y010600D01*
X014925Y010600D01*
X014525Y010200D01*
X011875Y010200D01*
X011697Y010378D01*
X011347Y010714D01*
X011233Y010600D01*
X007325Y010600D01*
X006925Y010200D01*
X004075Y010200D01*
X003847Y010428D01*
X003847Y010714D01*
X014225Y012100D02*
X014275Y012150D01*
X017225Y012850D02*
X017225Y014150D01*
X016625Y014750D01*
X014975Y014750D01*
X014825Y014900D01*
X014825Y015500D01*
X016705Y015600D02*
X017725Y015600D01*
X017875Y015450D01*
X017875Y012850D01*
X017975Y012750D01*
X019325Y012750D01*
X017275Y014750D02*
X016625Y014750D01*
X016875Y016800D02*
X018475Y016800D01*
D17*
X017075Y017900D02*
X020625Y017900D01*
X020725Y017800D01*
X020725Y016300D01*
X016705Y015600D02*
X015375Y015600D01*
X014325Y015950D02*
X027275Y015950D01*
X026347Y010714D02*
X026183Y010550D01*
X015825Y011750D02*
X013675Y011750D01*
X013525Y011900D01*
X013525Y016850D01*
X013625Y016950D01*
X015925Y016950D01*
M02*
